<?xml version="1.0" encoding="UTF-8" standalone="no"?>
<!DOCTYPE svg PUBLIC "-//W3C//DTD SVG 1.0//EN" "http://www.w3.org/TR/2001/REC-SVG-20010904/DTD/svg10.dtd">
<svg xmlns="http://www.w3.org/2000/svg" version="1.0" viewBox="0.00 0.00 562.00 542.00">
<path fill="#ffffff" d="
  M 157.42 472.52
  C 131.49 461.27 115.03 436.28 111.66 408.44
  Q 111.05 403.43 111.05 394.53
  Q 111.02 249.77 111.04 105.00
  C 111.05 67.37 134.92 30.46 174.03 24.82
  Q 179.48 24.04 194.00 24.04
  Q 287.26 24.04 380.50 24.04
  Q 397.39 24.04 412.65 32.52
  C 434.64 44.74 448.73 67.88 451.95 92.53
  Q 452.74 98.56 452.75 112.50
  Q 452.82 255.62 452.77 398.75
  C 452.75 435.38 427.89 470.84 390.93 476.96
  Q 384.97 477.95 370.99 477.96
  Q 276.74 478.04 182.50 477.96
  Q 169.92 477.95 157.42 472.52
  Z
  M 395.6080 84.9953
  A 32.76 32.76 0.0 0 0 362.7909 52.2925
  L 205.2111 52.5676
  A 32.76 32.76 0.0 0 0 172.5084 85.3847
  L 172.5120 87.4447
  A 32.76 32.76 0.0 0 0 205.3291 120.1475
  L 362.9089 119.8724
  A 32.76 32.76 0.0 0 0 395.6116 87.0553
  L 395.6080 84.9953
  Z
  M 430.25 296.84
  A 146.20 146.20 0.0 0 0 284.05 150.64
  A 146.20 146.20 0.0 0 0 137.85 296.84
  A 146.20 146.20 0.0 0 0 284.05 443.04
  A 146.20 146.20 0.0 0 0 430.25 296.84
  Z"
/>
<rect fill="#000000" x="-103.47" y="-25.61" transform="translate(284.08,86.33) rotate(-0.1)" width="206.94" height="51.22" rx="24.96"/>
<path fill="#000000" d="
  M 422.01 296.82
  A 137.96 137.96 0.0 0 1 284.05 434.78
  A 137.96 137.96 0.0 0 1 146.09 296.82
  A 137.96 137.96 0.0 0 1 284.05 158.86
  A 137.96 137.96 0.0 0 1 422.01 296.82
  Z
  M 395.87 296.83
  A 111.82 111.82 0.0 0 0 284.05 185.01
  A 111.82 111.82 0.0 0 0 172.23 296.83
  A 111.82 111.82 0.0 0 0 284.05 408.65
  A 111.82 111.82 0.0 0 0 395.87 296.83
  Z"
/>
<path fill="#000000" d="
  M 47.64 260.28
  C 42.37 290.39 42.35 323.31 49.46 353.92
  Q 52.85 368.53 57.59 377.66
  C 59.50 381.33 62.92 387.52 67.54 390.05
  Q 68.65 390.66 71.47 391.08
  C 77.23 391.93 80.59 397.68 78.40 402.88
  C 74.69 411.71 61.68 406.95 56.26 402.75
  C 46.94 395.53 40.82 383.75 37.22 372.77
  C 26.44 339.81 24.75 302.69 29.16 268.49
  C 31.83 247.77 41.57 201.35 68.22 198.01
  C 77.19 196.88 83.40 206.87 75.95 212.78
  C 74.05 214.29 70.98 214.74 68.49 215.28
  C 61.24 216.86 53.62 236.60 51.34 244.33
  Q 49.13 251.83 47.64 260.28
  Z"
/>
<path fill="#000000" d="
  M 495.53 407.94
  C 486.63 408.22 483.59 396.39 491.77 391.95
  C 493.71 390.89 496.16 391.24 498.06 390.22
  C 509.82 383.91 515.96 358.24 518.09 346.49
  Q 525.29 306.74 519.38 266.76
  C 517.36 253.09 514.01 239.23 507.59 226.90
  C 505.49 222.86 502.69 218.30 499.05 216.13
  C 496.89 214.84 493.93 214.70 491.88 213.89
  C 485.92 211.54 485.30 203.36 490.20 199.69
  Q 492.92 197.67 497.21 198.00
  C 520.20 199.81 530.57 235.40 534.15 253.36
  Q 543.47 300.23 535.00 347.49
  C 531.50 367.01 521.59 407.13 495.53 407.94
  Z"
/>
<circle fill="#000000" cx="284.05" cy="296.83" r="69.48"/>
<path fill="#000000" d="
  M 95.31 359.63
  C 89.56 363.83 81.38 360.50 77.23 355.76
  C 71.46 349.17 68.28 340.91 66.34 332.48
  Q 60.33 306.33 65.07 279.26
  C 67.04 268.01 74.07 243.37 89.99 244.13
  C 97.84 244.50 101.47 255.59 94.33 259.61
  C 92.76 260.49 90.41 260.78 88.97 262.35
  C 85.58 266.05 83.47 274.03 82.66 277.78
  Q 77.19 303.01 82.65 328.22
  C 83.59 332.57 85.60 340.15 89.02 343.59
  Q 89.90 344.49 92.31 345.28
  C 98.09 347.18 101.04 355.44 95.31 359.63
  Z"
/>
<path fill="#000000" d="
  M 477.92 263.32
  C 476.39 260.71 472.82 260.82 471.11 259.41
  C 465.19 254.57 467.44 245.38 474.73 244.23
  C 484.97 242.61 492.76 253.81 495.98 261.74
  C 505.12 284.20 504.82 312.49 498.89 335.60
  C 496.36 345.47 488.65 362.45 476.05 361.53
  C 467.50 360.90 464.73 350.55 471.98 346.04
  C 474.21 344.65 476.73 345.33 478.37 342.10
  C 487.74 323.66 487.64 298.13 483.67 278.38
  Q 482.06 270.36 477.92 263.32
  Z"
/>
</svg>
