<?xml version="1.0" encoding="UTF-8" standalone="no"?>
<!DOCTYPE svg PUBLIC "-//W3C//DTD SVG 1.0//EN" "http://www.w3.org/TR/2001/REC-SVG-20010904/DTD/svg10.dtd">
<svg xmlns="http://www.w3.org/2000/svg" version="1.0" viewBox="0.00 0.00 536.00 520.00">
<path fill="#ffffff" d="
  M 137.36 106.44
  Q 136.87 106.26 136.87 106.78
  L 136.87 215.80
  A 1.02 1.02 0.0 0 0 137.57 216.77
  Q 185.76 232.59 234.00 248.83
  Q 234.86 249.11 235.72 248.83
  Q 272.72 236.56 309.75 248.78
  Q 310.61 249.06 311.46 248.78
  Q 359.94 232.90 408.27 216.71
  A 1.04 1.02 81.1 0 0 408.97 215.73
  L 408.96 106.00
  A 0.72 0.71 81.6 0 0 408.04 105.31
  Q 388.06 111.37 368.11 117.27
  Q 362.44 118.94 359.72 118.61
  C 347.85 117.17 346.07 99.25 358.05 95.61
  Q 383.03 88.03 407.93 80.49
  Q 408.95 80.18 408.95 79.12
  Q 408.95 66.24 408.97 53.25
  Q 408.97 49.85 410.84 47.03
  C 417.62 36.76 432.55 41.74 432.73 53.75
  Q 432.87 62.88 432.90 71.77
  Q 432.90 72.91 434.00 72.58
  Q 454.61 66.41 475.50 60.23
  Q 482.14 58.26 486.93 61.30
  C 493.87 65.70 494.34 76.13 487.48 80.81
  Q 485.76 81.98 480.78 83.50
  Q 457.45 90.62 434.09 97.41
  Q 432.91 97.76 432.91 98.99
  L 432.87 207.52
  A 0.66 0.66 0.0 0 0 433.74 208.14
  Q 442.64 205.19 451.76 202.19
  C 462.52 198.64 466.56 205.84 469.62 214.21
  Q 488.41 265.57 507.35 316.87
  Q 509.89 323.75 509.53 327.08
  C 508.82 333.67 504.07 335.90 497.85 337.86
  Q 466.64 347.70 434.49 357.85
  Q 432.92 358.34 432.91 359.99
  L 432.87 430.99
  A 3.86 3.84 24.6 0 0 433.82 433.52
  Q 435.56 435.53 437.76 437.74
  Q 455.70 455.69 473.67 473.60
  Q 478.79 478.69 479.77 481.70
  C 482.91 491.30 472.41 500.02 463.59 495.84
  Q 460.98 494.60 455.65 489.27
  Q 438.52 472.13 421.84 455.44
  Q 420.84 454.43 419.84 455.44
  Q 401.87 473.58 383.87 491.34
  C 378.94 496.19 374.47 498.81 368.08 495.69
  C 360.61 492.04 359.22 482.34 365.30 476.29
  Q 386.16 455.53 406.95 434.71
  C 408.38 433.27 408.94 432.39 408.94 430.23
  Q 408.99 398.51 408.94 366.97
  A 0.76 0.76 0.0 0 0 407.95 366.25
  L 391.42 371.49
  A 1.21 1.18 -7.1 0 0 390.59 372.53
  C 390.38 375.40 390.16 378.39 389.62 381.17
  Q 378.87 435.64 330.99 464.01
  A 0.53 0.53 0.0 0 0 330.82 464.76
  Q 339.01 476.81 347.04 488.97
  Q 349.98 493.42 350.38 495.97
  C 351.95 506.01 339.48 513.43 331.46 507.13
  Q 329.75 505.78 326.73 501.26
  Q 317.74 487.78 308.91 474.45
  A 1.38 1.38 0.0 0 0 307.36 473.90
  Q 272.93 484.35 238.50 473.93
  A 1.49 1.48 25.1 0 0 236.83 474.53
  Q 227.00 489.27 217.15 504.16
  C 210.16 514.73 192.78 507.86 195.69 495.02
  Q 196.18 492.84 198.57 489.28
  Q 206.61 477.26 214.56 465.33
  A 1.31 1.31 0.0 0 0 214.12 463.47
  C 181.68 444.89 157.94 410.19 155.22 372.41
  A 1.11 1.10 -83.8 0 0 154.45 371.44
  L 137.65 366.24
  A 0.64 0.63 -81.6 0 0 136.83 366.85
  L 136.86 431.74
  Q 136.87 432.77 137.59 433.50
  Q 159.06 455.01 180.51 476.48
  C 192.13 488.10 175.49 504.66 163.30 492.69
  C 150.65 480.27 138.33 467.54 125.63 455.16
  A 0.88 0.88 0.0 0 0 124.40 455.17
  Q 105.05 474.40 86.17 493.17
  C 79.78 499.54 68.85 497.35 66.08 488.70
  C 64.23 482.92 66.71 479.17 70.99 474.87
  Q 91.64 454.09 112.23 433.63
  A 2.66 2.63 -22.6 0 0 113.02 431.75
  L 113.05 359.27
  A 1.26 1.26 0.0 0 0 112.17 358.07
  Q 79.98 347.99 47.73 337.80
  Q 41.62 335.86 39.38 333.64
  C 34.67 328.96 35.94 323.74 38.21 317.60
  Q 57.44 265.68 76.56 213.73
  C 79.14 206.72 81.44 201.65 88.89 201.36
  Q 91.53 201.26 96.39 202.95
  Q 104.35 205.71 112.12 208.20
  A 0.70 0.70 0.0 0 0 113.04 207.53
  L 113.02 98.22
  Q 113.02 97.05 111.93 96.64
  Q 79.67 84.32 47.00 71.82
  C 40.91 69.49 36.57 67.00 35.98 60.51
  C 35.34 53.44 41.91 46.35 49.26 47.55
  Q 50.34 47.72 57.16 50.33
  Q 84.73 60.88 112.10 71.55
  A 0.70 0.70 0.0 0 0 113.05 70.90
  Q 113.09 49.11 113.01 27.45
  Q 112.99 21.79 114.09 19.21
  C 119.02 7.58 136.77 11.05 136.82 23.50
  Q 136.92 52.00 136.84 80.52
  Q 136.84 80.94 137.22 81.08
  Q 170.26 93.72 203.45 106.50
  Q 209.22 108.73 211.07 110.40
  C 220.60 119.06 210.62 134.55 198.29 129.82
  Q 167.69 118.05 137.36 106.44
  Z
  M 139.05 243.53
  A 1.30 1.30 0.0 0 0 138.25 241.83
  L 97.94 228.41
  A 1.30 1.30 0.0 0 0 96.31 229.19
  L 63.96 316.58
  A 1.30 1.30 0.0 0 0 64.79 318.27
  L 103.83 330.56
  A 1.30 1.30 0.0 0 0 105.43 329.80
  L 139.05 243.53
  Z
  M 440.48 329.93
  A 1.13 1.13 0.0 0 0 441.87 330.60
  L 481.16 318.21
  A 1.13 1.13 0.0 0 0 481.88 316.74
  L 449.50 229.12
  A 1.13 1.13 0.0 0 0 448.08 228.44
  L 407.47 241.88
  A 1.13 1.13 0.0 0 0 406.77 243.36
  L 440.48 329.93
  Z
  M 162.07 250.62
  L 128.54 336.76
  A 0.85 0.84 -65.5 0 0 128.93 337.82
  C 136.55 341.86 145.99 344.01 154.25 346.65
  Q 154.79 346.82 155.16 346.40
  C 156.05 345.40 155.79 343.34 155.95 342.45
  Q 164.72 293.83 204.39 264.77
  A 0.54 0.54 0.0 0 0 204.24 263.83
  L 163.18 250.10
  A 0.90 0.89 19.8 0 0 162.07 250.62
  Z
  M 341.47 264.84
  C 368.44 284.28 385.76 313.02 390.39 345.97
  A 0.91 0.90 -13.1 0 0 391.57 346.70
  Q 400.89 343.57 410.54 340.60
  C 412.99 339.85 414.98 338.76 416.97 337.38
  A 0.72 0.72 0.0 0 0 417.23 336.51
  L 383.66 250.45
  A 0.63 0.62 69.9 0 0 382.88 250.08
  L 341.61 263.86
  A 0.56 0.55 53.2 0 0 341.47 264.84
  Z
  M 367.48 360.90
  A 94.59 94.59 0.0 0 0 272.89 266.31
  A 94.59 94.59 0.0 0 0 178.30 360.90
  A 94.59 94.59 0.0 0 0 272.89 455.49
  A 94.59 94.59 0.0 0 0 367.48 360.90
  Z"
/>
</svg>
