<?xml version="1.0" encoding="UTF-8" standalone="no"?>
<!DOCTYPE svg PUBLIC "-//W3C//DTD SVG 1.0//EN" "http://www.w3.org/TR/2001/REC-SVG-20010904/DTD/svg10.dtd">
<svg xmlns="http://www.w3.org/2000/svg" version="1.0" viewBox="0.00 0.00 530.00 570.00">
<path fill="#ffffff" d="
  M 446.39 65.65
  Q 447.07 64.97 446.44 64.25
  Q 441.21 58.25 444.21 52.75
  C 447.11 47.42 454.53 47.68 458.12 52.27
  A 1.19 1.19 0.0 0 0 460.04 52.21
  Q 463.15 47.73 469.02 47.25
  Q 487.70 45.72 502.54 56.46
  C 517.26 67.10 526.01 83.64 525.06 102.05
  Q 524.73 108.35 519.68 111.97
  A 1.16 1.16 0.0 0 0 519.66 113.85
  C 528.93 120.71 518.39 134.39 509.55 126.93
  Q 508.26 125.84 507.48 125.21
  Q 507.02 124.85 506.60 125.26
  L 499.15 132.74
  A 1.03 1.03 0.0 0 0 499.21 134.25
  C 509.43 142.88 495.70 155.78 487.52 145.92
  A 1.02 1.01 47.4 0 0 486.02 145.85
  L 478.49 153.37
  A 0.69 0.69 0.0 0 0 478.49 154.33
  C 482.08 158.02 483.97 162.31 480.57 166.77
  C 475.92 172.86 469.01 169.42 465.27 164.56
  A 0.99 0.98 57.7 0 0 464.05 164.28
  L 441.92 175.39
  A 12.63 12.53 8.4 0 0 438.45 177.95
  L 354.85 264.84
  A 0.79 0.78 -42.6 0 0 354.80 265.87
  C 374.92 291.65 384.92 324.67 369.37 355.77
  C 362.23 370.04 350.01 383.09 335.74 389.24
  C 321.86 395.22 307.69 399.43 296.64 410.38
  C 290.10 416.86 287.70 423.18 285.67 432.29
  C 281.36 451.72 277.98 471.23 270.12 489.63
  C 259.17 515.29 240.55 534.39 215.94 547.41
  C 158.55 577.77 103.31 542.60 63.71 502.13
  C 29.51 467.18 -1.41 416.29 20.06 365.29
  C 35.59 328.39 65.85 303.85 104.78 294.14
  Q 121.09 290.07 137.60 286.86
  Q 145.39 285.34 151.26 282.74
  C 169.32 274.74 175.30 253.37 182.56 237.03
  C 190.03 220.26 203.62 207.92 220.38 200.63
  C 250.10 187.69 281.64 198.23 305.84 216.97
  A 1.22 1.22 0.0 0 0 307.43 216.88
  Q 350.46 175.47 393.63 133.88
  C 394.68 132.86 395.89 131.40 396.64 129.92
  Q 402.27 118.84 407.82 107.73
  A 0.57 0.56 -56.6 0 0 407.69 107.06
  C 403.50 103.32 399.59 98.58 403.74 92.98
  C 407.45 87.98 413.96 89.17 417.63 93.55
  A 0.61 0.60 47.4 0 0 418.53 93.59
  L 426.29 85.75
  A 0.77 0.77 0.0 0 0 426.24 84.63
  C 421.17 80.30 421.10 72.74 427.79 69.90
  C 432.66 67.84 434.71 70.38 438.24 73.02
  Q 438.72 73.37 439.14 72.95
  L 446.39 65.65
  Z
  M 423.45 113.55
  C 419.81 120.51 416.38 127.67 412.94 134.64
  A 1.09 1.08 35.9 0 0 413.14 135.88
  L 435.94 158.79
  A 1.33 1.33 0.0 0 0 437.48 159.04
  L 459.49 147.96
  A 12.73 12.58 8.8 0 0 462.81 145.56
  Q 484.64 123.76 506.48 101.92
  C 508.03 100.37 508.70 99.11 508.54 97.00
  C 507.17 79.21 491.69 63.31 473.30 63.81
  Q 471.73 63.85 470.17 65.42
  Q 448.81 86.76 427.45 108.13
  Q 425.00 110.59 423.45 113.55
  Z
  M 401.96 149.02
  L 260.84 284.87
  A 0.44 0.44 0.0 0 0 260.95 285.59
  Q 278.05 293.77 286.27 310.84
  A 0.61 0.61 0.0 0 0 287.26 311.00
  L 422.97 170.04
  A 0.48 0.48 0.0 0 0 422.96 169.37
  L 402.64 149.03
  Q 402.30 148.69 401.96 149.02
  Z
  M 186.27 336.66
  C 184.16 306.46 208.52 280.59 238.92 280.67
  C 241.40 280.68 242.10 279.82 243.74 278.23
  Q 269.01 253.84 294.26 229.60
  A 0.40 0.39 41.5 0 0 294.22 229.00
  C 280.48 218.74 262.93 210.90 245.37 211.71
  C 225.28 212.64 205.93 225.51 197.75 243.88
  C 189.09 263.33 183.40 282.35 164.27 294.56
  C 156.76 299.36 147.23 302.03 138.26 303.82
  C 123.22 306.83 108.45 309.65 94.04 315.15
  C 66.90 325.52 45.53 346.07 34.90 372.96
  C 15.12 423.01 56.23 474.99 91.42 505.58
  C 123.06 533.09 164.92 554.73 206.62 533.57
  C 236.84 518.23 254.77 492.85 262.38 460.23
  Q 265.81 445.54 268.90 430.78
  Q 271.16 419.95 274.28 413.24
  C 284.59 391.02 306.69 383.37 327.50 374.71
  C 350.24 365.26 363.85 338.29 359.43 314.28
  C 356.92 300.68 351.02 289.09 343.09 277.86
  A 0.47 0.46 -40.4 0 0 342.37 277.81
  Q 317.65 303.54 292.77 329.03
  Q 291.27 330.56 291.29 331.74
  Q 291.59 355.04 275.82 370.57
  C 243.89 402.04 189.40 381.56 186.27 336.66
  Z
  M 274.67 333.17
  A 35.84 35.84 0.0 0 0 238.83 297.33
  A 35.84 35.84 0.0 0 0 202.99 333.17
  A 35.84 35.84 0.0 0 0 238.83 369.01
  A 35.84 35.84 0.0 0 0 274.67 333.17
  Z"
/>
<rect fill="#000000" x="-63.45" y="-8.31" transform="translate(140.07,431.89) rotate(45.0)" width="126.90" height="16.62" rx="8.23"/>
</svg>
