<?xml version="1.0" encoding="UTF-8" standalone="no"?>
<!DOCTYPE svg PUBLIC "-//W3C//DTD SVG 1.1//EN" "http://www.w3.org/Graphics/SVG/1.1/DTD/svg11.dtd">
<svg xmlns="http://www.w3.org/2000/svg" version="1.1" viewBox="0.00 0.00 96.00 96.00">
<path fill="#707070" d="
  M 53.46 38.00
  L 62.34 29.16
  A 2.33 2.32 -42.6 0 1 65.76 29.30
  L 66.32 29.97
  Q 68.27 32.27 66.14 34.40
  L 34.39 66.15
  Q 32.21 68.33 29.89 66.29
  L 29.26 65.73
  A 2.31 2.31 0.0 0 1 29.14 62.36
  L 38.23 53.24
  A 0.28 0.27 -54.2 0 0 38.16 52.80
  C 28.82 48.16 22.14 54.83 16.45 61.45
  C 5.47 74.23 22.27 90.77 34.34 79.58
  C 38.68 75.57 44.05 71.48 44.67 65.12
  Q 44.72 64.63 45.07 64.28
  L 50.07 59.31
  A 0.36 0.35 -28.2 0 1 50.67 59.49
  C 52.42 67.88 49.66 73.34 44.00 79.15
  C 39.28 83.99 35.63 88.05 29.28 89.26
  C 13.72 92.23 0.68 75.43 8.68 61.25
  C 10.47 58.09 13.82 55.07 16.68 52.13
  C 24.20 44.42 32.88 42.35 42.70 48.02
  Q 43.18 48.30 43.58 47.90
  L 47.90 43.56
  Q 48.31 43.15 48.02 42.65
  Q 42.12 32.65 46.95 23.29
  C 49.14 19.05 55.41 13.02 58.77 10.27
  C 64.98 5.20 75.44 5.16 82.00 10.24
  C 89.49 16.05 91.74 26.11 87.29 34.60
  C 85.11 38.75 80.81 42.31 77.21 45.71
  Q 69.67 52.84 59.50 50.68
  A 0.38 0.37 28.6 0 1 59.31 50.05
  L 64.28 45.08
  Q 64.64 44.73 65.13 44.67
  Q 69.81 44.20 73.15 40.90
  C 75.80 38.27 79.28 35.32 81.05 32.50
  C 88.03 21.43 76.22 8.30 64.54 14.34
  C 61.60 15.87 58.81 19.08 56.18 21.73
  C 51.56 26.38 49.60 31.50 52.73 37.87
  Q 53.01 38.45 53.46 38.00
  Z"
/>
</svg>
