<?xml version="1.0" encoding="UTF-8" standalone="no"?>
<!DOCTYPE svg PUBLIC "-//W3C//DTD SVG 1.0//EN" "http://www.w3.org/TR/2001/REC-SVG-20010904/DTD/svg10.dtd">
<svg xmlns="http://www.w3.org/2000/svg" version="1.0" viewBox="0.00 0.00 1024.00 1024.00">
<path fill="#292f47" d="
  M 756.55 207.22
  Q 754.34 207.42 753.28 206.00
  A 1.30 1.30 0.0 0 0 751.60 205.64
  L 748.31 207.48
  A 2.96 2.93 -48.5 0 1 745.76 207.65
  C 734.96 203.34 723.77 206.62 713.02 212.42
  Q 710.94 210.24 708.68 208.82
  Q 694.89 200.22 680.56 192.54
  C 612.77 156.19 533.46 141.03 457.82 151.57
  C 358.28 165.46 268.53 215.99 205.93 294.69
  Q 189.03 315.92 174.95 343.09
  Q 165.42 358.80 158.05 376.06
  Q 157.61 377.09 156.99 379.01
  Q 156.45 380.65 155.85 381.92
  Q 146.94 401.86 140.48 428.51
  Q 133.43 457.54 131.78 480.63
  Q 131.13 489.82 131.52 493.74
  Q 132.87 507.24 143.44 514.58
  Q 146.03 517.19 149.84 518.63
  Q 147.87 519.33 146.12 519.93
  C 132.15 524.71 130.58 538.54 131.33 551.25
  Q 132.20 566.06 134.16 579.01
  C 143.84 642.80 168.03 701.57 209.08 752.67
  Q 224.57 771.95 244.25 791.38
  C 270.25 817.05 300.15 836.72 331.77 853.20
  C 376.80 876.67 426.36 891.46 477.01 895.71
  C 566.99 903.24 653.26 875.71 726.35 823.63
  C 732.94 818.94 739.62 813.38 746.13 808.12
  C 777.54 782.70 805.25 749.75 826.33 715.85
  C 856.06 668.08 873.91 613.07 878.43 556.67
  C 879.44 544.00 879.89 531.93 869.09 523.42
  Q 864.95 520.15 859.74 519.51
  Q 864.53 517.47 868.37 514.23
  C 877.80 506.56 878.94 495.03 877.94 483.50
  Q 874.24 440.93 860.27 399.26
  Q 858.83 394.96 857.99 393.18
  Q 842.74 350.03 816.75 312.46
  Q 810.85 303.95 804.88 295.29
  Q 805.49 294.90 806.08 293.83
  Q 806.61 292.89 807.14 292.32
  Q 817.48 281.35 825.92 269.20
  A 1.88 1.87 40.0 0 0 825.71 266.81
  Q 822.77 263.84 821.04 260.07
  A 0.86 0.65 -63.8 0 1 820.98 259.76
  L 821.18 253.87
  Q 821.20 253.37 820.74 253.16
  Q 820.08 252.87 818.99 252.38
  Q 815.83 250.96 816.52 246.70
  Q 817.06 245.16 817.97 243.47
  Q 818.65 242.20 819.91 243.07
  Q 820.00 243.13 820.00 243.24
  Q 820.00 243.37 819.99 243.51
  Q 819.93 244.42 820.29 243.58
  L 820.53 243.00
  Q 820.68 242.65 820.69 243.02
  L 820.69 243.63
  L 820.92 248.37
  Q 820.94 248.80 821.28 249.05
  Q 821.54 249.24 821.59 249.56
  Q 821.64 249.79 821.49 249.91
  Q 821.39 249.99 821.21 249.95
  A 0.12 0.12 0.0 0 0 821.09 250.14
  L 823.44 253.03
  A 0.92 0.87 26.8 0 1 823.64 253.59
  C 823.64 256.76 822.71 259.03 823.36 262.63
  A 1.11 1.11 0.0 0 0 823.74 263.29
  L 826.40 265.61
  Q 826.77 265.93 827.26 265.95
  Q 828.60 266.00 829.11 266.63
  Q 836.84 276.01 847.89 292.38
  C 878.48 337.66 899.65 389.28 909.78 443.00
  Q 911.40 451.62 913.72 466.58
  Q 913.88 467.60 914.05 469.94
  C 914.23 472.47 914.94 474.81 914.99 477.25
  C 915.06 480.92 915.93 484.07 916.05 487.57
  C 916.20 492.27 916.81 495.87 916.94 500.04
  Q 917.61 521.25 916.94 542.45
  Q 916.87 544.61 916.44 548.52
  C 915.61 556.00 915.83 563.91 914.46 571.34
  C 913.99 573.86 914.11 576.24 913.54 578.82
  Q 913.26 580.10 912.99 582.00
  C 909.06 609.29 902.29 637.52 892.61 663.92
  Q 870.82 723.33 831.35 773.59
  C 816.44 792.58 800.17 810.57 782.35 826.27
  C 777.09 830.90 771.93 835.78 766.43 840.18
  C 710.83 884.67 644.38 915.82 573.99 927.97
  C 563.23 929.83 552.75 931.47 541.61 932.34
  C 532.31 933.07 522.99 933.97 513.68 934.01
  Q 507.10 934.03 500.53 934.02
  C 488.51 934.00 476.53 932.86 464.50 931.91
  Q 449.19 930.70 424.11 925.62
  Q 402.72 921.29 374.54 911.89
  C 328.05 896.38 283.44 872.81 245.25 841.99
  Q 238.98 836.93 232.91 831.62
  Q 212.00 813.29 193.55 792.47
  Q 170.59 766.54 152.30 737.20
  Q 147.08 728.82 142.24 719.92
  Q 116.38 672.31 104.73 622.76
  Q 96.99 589.85 94.28 562.50
  Q 92.99 549.47 92.38 529.50
  C 91.58 502.97 93.55 475.71 97.99 450.50
  C 102.15 426.89 109.07 400.42 118.51 375.42
  C 133.21 336.43 154.17 300.44 179.58 268.07
  C 211.77 227.08 251.65 193.88 295.44 168.46
  C 339.71 142.75 389.25 124.98 439.94 116.46
  Q 449.05 114.93 469.00 112.73
  C 474.55 112.12 480.37 112.01 484.66 111.59
  C 494.22 110.67 503.59 110.91 515.17 111.06
  C 520.34 111.12 526.96 111.86 532.92 112.03
  Q 537.36 112.16 540.04 112.42
  C 578.86 116.15 617.89 124.65 654.28 138.88
  C 692.07 153.67 729.34 173.72 760.93 199.35
  A 0.79 0.79 0.0 0 1 760.78 200.67
  L 755.65 203.22
  Q 755.01 203.53 755.12 204.23
  Q 755.28 205.21 755.10 206.21
  Q 755.02 206.67 755.48 206.78
  Q 756.10 206.93 756.55 207.22
  Z"
/>
<path fill="#ff747a" d="
  M 713.02 212.42
  C 706.44 215.65 700.23 218.74 693.58 222.57
  Q 680.60 230.04 676.22 231.73
  C 652.00 241.09 629.98 256.59 624.27 283.41
  C 623.40 287.52 622.59 288.79 620.05 291.80
  Q 600.86 314.48 581.74 337.21
  Q 578.89 340.60 575.51 340.71
  Q 565.20 341.06 554.28 342.54
  A 1.12 1.12 0.0 0 1 553.03 341.62
  C 548.02 310.92 519.26 287.60 487.56 297.37
  C 479.42 299.88 473.60 305.39 467.90 311.89
  Q 459.36 321.62 450.99 331.50
  C 448.37 334.60 445.08 334.52 441.51 334.17
  A 1.19 1.18 88.4 0 1 440.46 333.17
  C 438.28 319.02 431.60 307.09 418.92 299.07
  Q 406.89 291.46 392.52 296.72
  C 391.16 297.22 389.40 297.12 388.05 296.49
  Q 377.24 291.41 367.41 296.80
  C 362.95 299.24 359.11 303.87 355.79 308.00
  Q 346.58 319.44 337.36 330.85
  Q 335.48 333.19 333.75 333.10
  Q 284.99 330.74 236.25 328.05
  Q 228.30 327.62 216.30 327.23
  Q 203.53 326.82 197.77 328.27
  Q 184.50 331.59 174.95 343.09
  Q 189.03 315.92 205.93 294.69
  C 268.53 215.99 358.28 165.46 457.82 151.57
  C 533.46 141.03 612.77 156.19 680.56 192.54
  Q 694.89 200.22 708.68 208.82
  Q 710.94 210.24 713.02 212.42
  Z
  M 577.29 235.89
  C 575.01 235.60 572.38 234.92 570.15 234.91
  Q 556.50 234.84 547.25 245.02
  C 541.07 251.81 539.98 263.86 549.84 268.37
  C 564.83 275.22 585.98 263.92 585.80 246.50
  Q 585.57 224.26 584.59 194.25
  Q 584.43 189.23 583.53 184.69
  Q 583.10 182.53 581.06 183.38
  Q 545.41 198.19 509.44 212.97
  C 507.44 213.79 507.40 216.46 507.40 218.25
  Q 507.37 247.88 507.74 277.31
  A 0.48 0.48 0.0 0 0 508.48 277.70
  C 513.52 274.33 513.63 270.17 513.57 264.75
  Q 513.40 246.66 513.41 228.86
  A 1.46 1.46 0.0 0 1 514.32 227.51
  L 576.81 202.46
  A 0.70 0.69 78.1 0 1 577.76 203.08
  L 578.74 234.57
  Q 578.79 236.08 577.29 235.89
  Z
  M 335.35 266.89
  Q 330.93 265.43 327.78 266.31
  C 322.87 267.68 318.86 277.23 326.52 277.95
  Q 331.83 278.45 335.39 274.65
  Q 342.44 267.15 338.57 257.47
  C 337.25 254.15 341.64 249.33 340.47 245.03
  Q 339.97 243.16 339.20 244.94
  C 337.68 248.47 334.33 252.95 334.16 256.91
  C 334.00 260.38 336.65 262.99 335.99 266.52
  Q 335.88 267.07 335.35 266.89
  Z
  M 262.79 267.96
  L 288.40 272.16
  A 1.33 1.32 -85.2 0 1 289.51 273.48
  L 289.34 298.97
  A 0.54 0.53 -77.0 0 1 288.58 299.45
  C 282.16 296.32 271.31 296.36 268.60 304.57
  C 267.08 309.16 268.68 314.30 272.83 316.89
  C 280.68 321.80 292.37 317.28 293.25 307.50
  C 294.40 294.77 293.78 281.71 293.72 268.81
  Q 293.71 266.49 291.44 266.06
  L 258.24 259.76
  A 0.85 0.85 0.0 0 0 257.23 260.57
  L 256.53 292.23
  Q 256.50 293.59 255.35 292.85
  C 249.15 288.86 239.23 290.38 236.59 298.28
  C 230.81 315.54 260.30 316.06 261.03 299.75
  Q 261.68 285.19 261.48 269.09
  Q 261.46 267.74 262.79 267.96
  Z"
/>
<path fill="#292f47" d="
  M 577.29 235.89
  Q 578.79 236.08 578.74 234.57
  L 577.76 203.08
  A 0.70 0.69 78.1 0 0 576.81 202.46
  L 514.32 227.51
  A 1.46 1.46 0.0 0 0 513.41 228.86
  Q 513.40 246.66 513.57 264.75
  C 513.63 270.17 513.52 274.33 508.48 277.70
  A 0.48 0.48 0.0 0 1 507.74 277.31
  Q 507.37 247.88 507.40 218.25
  C 507.40 216.46 507.44 213.79 509.44 212.97
  Q 545.41 198.19 581.06 183.38
  Q 583.10 182.53 583.53 184.69
  Q 584.43 189.23 584.59 194.25
  Q 585.57 224.26 585.80 246.50
  C 585.98 263.92 564.83 275.22 549.84 268.37
  C 539.98 263.86 541.07 251.81 547.25 245.02
  Q 556.50 234.84 570.15 234.91
  C 572.38 234.92 575.01 235.60 577.29 235.89
  Z"
/>
<path fill="#292f47" d="
  M 820.69 243.63
  L 820.69 243.02
  Q 820.68 242.65 820.53 243.00
  L 820.29 243.58
  Q 819.93 244.42 819.99 243.51
  Q 820.00 243.37 820.00 243.24
  Q 820.00 243.13 819.91 243.07
  Q 818.65 242.20 817.97 243.47
  Q 817.06 245.16 816.52 246.70
  L 810.22 257.89
  Q 810.06 258.17 809.78 258.01
  L 809.55 257.88
  Q 809.49 257.85 809.52 257.79
  Q 813.35 250.48 816.67 242.90
  C 820.22 234.81 822.53 225.96 821.66 217.09
  C 820.97 209.99 818.48 206.19 812.49 202.72
  Q 805.06 198.42 797.04 200.41
  A 1.31 1.31 0.0 0 0 796.07 201.88
  Q 796.25 203.04 794.76 203.04
  Q 795.75 202.11 795.85 200.43
  Q 795.90 199.70 796.55 199.38
  C 802.48 196.42 809.01 193.72 815.75 193.00
  C 820.28 192.52 826.45 194.20 829.35 198.32
  C 835.09 206.48 827.83 223.74 823.75 231.91
  Q 823.56 232.31 823.78 232.69
  Q 824.15 233.33 823.60 233.94
  A 0.88 0.83 67.6 0 0 823.38 234.52
  L 823.38 236.75
  Q 823.38 236.83 823.26 236.82
  L 823.26 236.82
  Q 823.17 236.82 823.17 236.76
  L 823.51 233.50
  Q 823.58 232.80 823.19 233.38
  C 822.44 234.48 822.22 235.71 821.84 237.03
  Q 821.54 238.06 822.26 238.89
  A 0.50 0.47 -70.0 0 1 822.36 239.12
  L 823.31 245.76
  Q 823.38 246.24 823.20 246.68
  Q 822.59 248.15 823.19 249.73
  Q 823.23 249.82 823.10 249.89
  Q 822.91 249.99 823.00 249.91
  Q 823.03 249.88 823.03 249.83
  Q 822.80 246.99 823.16 244.12
  Q 823.23 243.56 822.74 243.30
  Q 822.56 243.21 822.43 243.09
  Q 822.16 242.84 822.19 242.47
  L 822.41 239.56
  Q 822.47 238.89 821.80 238.95
  L 821.28 239.01
  Q 821.06 239.03 820.98 239.22
  Q 820.63 240.04 821.17 239.89
  A 0.42 0.41 0.7 0 1 821.68 240.41
  L 820.69 243.63
  Z"
/>
<path fill="#fefefe" d="
  M 816.52 246.70
  Q 815.83 250.96 818.99 252.38
  Q 820.08 252.87 820.74 253.16
  Q 821.20 253.37 821.18 253.87
  L 820.98 259.76
  A 0.86 0.65 -63.8 0 0 821.04 260.07
  Q 822.77 263.84 825.71 266.81
  A 1.88 1.87 40.0 0 1 825.92 269.20
  Q 817.48 281.35 807.14 292.32
  Q 806.61 292.89 806.08 293.83
  Q 805.49 294.90 804.88 295.29
  Q 793.04 310.23 784.12 319.36
  Q 770.45 333.35 751.08 341.35
  Q 748.26 342.51 747.26 343.99
  C 736.38 360.14 725.26 373.84 713.49 387.94
  Q 697.16 407.50 680.69 426.96
  C 678.77 429.23 678.53 430.65 678.51 433.50
  Q 678.39 445.48 678.63 458.62
  A 2.16 2.14 -81.4 0 0 680.09 460.62
  L 689.54 463.77
  A 0.83 0.83 0.0 0 0 690.61 463.18
  Q 690.70 462.82 690.71 462.25
  Q 691.00 447.12 691.19 432.01
  C 691.35 419.13 709.28 416.90 714.83 426.84
  C 716.49 429.82 716.69 433.96 716.68 437.50
  Q 716.60 466.51 716.87 495.52
  C 716.92 500.17 717.69 504.25 722.25 505.68
  C 725.69 506.76 735.04 506.64 736.89 501.86
  Q 737.80 499.53 737.81 496.25
  Q 737.99 457.75 738.18 419.25
  C 738.23 407.67 757.31 407.09 757.45 420.50
  Q 757.54 429.23 757.54 437.96
  Q 757.41 466.48 757.38 495.00
  C 757.37 499.05 758.15 504.20 762.24 505.60
  C 768.18 507.62 779.20 506.31 779.56 497.99
  Q 779.97 488.51 779.72 461.24
  C 779.66 454.38 780.40 449.10 788.26 448.81
  Q 798.15 448.44 798.06 458.49
  Q 797.90 476.87 797.93 495.25
  C 797.94 503.54 800.61 506.19 808.59 506.63
  C 815.98 507.03 822.68 505.25 822.89 496.50
  Q 823.12 486.88 823.01 477.24
  C 822.92 468.45 832.67 466.11 839.03 470.25
  C 842.05 472.20 842.46 475.99 842.50 479.25
  Q 842.66 491.50 842.85 503.76
  Q 842.92 508.45 847.24 509.74
  Q 857.22 512.71 868.37 514.23
  Q 864.53 517.47 859.74 519.51
  L 844.66 523.14
  A 2.45 2.44 -6.5 0 0 842.79 525.49
  Q 842.69 539.52 842.78 553.25
  Q 842.82 558.70 841.94 560.68
  C 838.63 568.10 827.75 567.97 824.29 561.47
  Q 822.92 558.88 822.97 552.83
  Q 823.06 543.41 822.94 534.00
  C 822.89 530.43 821.79 525.41 818.26 524.36
  Q 810.59 522.08 801.99 524.40
  C 798.68 525.28 798.15 528.65 798.14 531.75
  Q 798.07 552.50 798.06 573.25
  C 798.06 577.08 798.47 581.35 795.68 584.39
  C 792.98 587.32 788.22 587.39 784.82 585.69
  C 781.08 583.83 779.73 580.56 779.70 576.50
  Q 779.47 548.37 779.73 534.01
  C 779.89 525.19 771.23 523.02 764.39 525.09
  C 756.83 527.38 757.35 534.43 757.37 540.75
  Q 757.53 578.63 757.25 616.50
  C 757.21 622.55 753.18 626.28 747.25 625.70
  C 738.70 624.88 737.99 618.87 737.99 611.23
  Q 738.01 573.36 737.78 535.50
  C 737.75 530.47 737.12 527.63 731.62 526.66
  C 723.19 525.16 716.78 527.44 716.81 537.00
  Q 716.83 546.12 716.97 555.25
  Q 716.99 556.79 717.84 557.41
  C 723.66 561.62 731.44 569.76 733.09 576.99
  Q 738.88 602.35 720.86 620.40
  Q 719.27 622.00 719.89 624.28
  C 731.93 668.88 745.10 713.23 757.49 757.75
  C 759.36 764.43 762.28 776.31 757.71 781.96
  Q 751.68 789.43 745.65 796.89
  Q 737.62 806.82 735.84 808.19
  C 729.92 812.73 720.34 814.19 713.43 810.09
  Q 707.29 806.45 705.24 805.51
  Q 694.75 800.72 687.65 791.56
  Q 676.65 777.38 665.39 763.41
  Q 658.33 754.46 651.19 745.58
  Q 649.41 743.36 647.50 743.73
  C 638.78 745.43 630.58 744.52 628.19 734.96
  C 627.44 731.97 627.72 728.29 627.79 724.98
  C 627.83 723.04 626.04 720.36 624.84 718.83
  C 617.20 709.15 609.54 699.57 602.10 689.73
  A 2.75 2.72 -12.9 0 0 600.44 688.70
  C 598.22 688.27 595.43 688.03 593.54 686.98
  C 586.18 682.87 586.60 671.27 587.80 663.96
  C 588.11 662.02 588.12 659.57 587.13 658.17
  Q 575.94 642.38 564.26 627.57
  A 2.58 2.58 0.0 0 0 561.64 626.66
  C 546.55 630.23 542.33 618.21 545.79 605.82
  C 546.26 604.16 546.07 602.91 545.20 601.54
  C 541.09 595.14 535.98 589.43 531.31 583.44
  C 529.54 581.17 525.31 581.53 522.74 581.15
  A 0.77 0.77 0.0 0 0 521.86 581.92
  Q 522.02 624.82 522.19 667.18
  C 522.22 674.59 520.54 681.93 512.76 684.75
  C 501.14 688.97 490.28 681.44 490.24 669.00
  Q 490.15 642.63 490.23 615.58
  A 2.20 1.11 35.9 0 0 489.55 614.27
  Q 489.10 613.81 488.22 614.74
  C 469.86 634.38 451.96 654.50 434.09 674.60
  Q 432.35 676.56 433.00 679.75
  Q 440.35 715.72 447.81 751.66
  Q 449.74 760.93 450.18 767.98
  Q 450.70 776.23 450.55 784.52
  C 450.44 790.80 443.58 795.34 439.47 799.39
  C 433.70 805.61 425.65 816.43 416.49 816.39
  C 405.28 816.34 397.29 810.13 389.25 802.68
  C 382.98 796.89 376.88 791.95 370.72 786.53
  Q 367.96 784.11 366.92 782.57
  Q 346.29 752.22 325.52 721.96
  Q 321.73 716.44 315.00 705.18
  C 313.73 703.06 312.23 702.14 310.00 701.53
  Q 298.00 698.22 288.77 694.86
  Q 253.40 681.96 219.31 665.97
  Q 210.26 661.73 206.58 658.23
  C 190.89 643.30 192.88 615.34 212.58 604.90
  C 215.64 603.27 218.42 602.55 221.13 600.15
  Q 224.38 597.27 227.73 594.50
  C 234.63 588.79 242.52 589.85 250.71 591.10
  Q 272.98 593.78 295.31 596.01
  C 310.35 597.51 325.75 599.54 340.99 601.11
  C 343.26 601.34 345.26 598.80 346.93 596.93
  Q 361.52 580.48 376.11 564.03
  C 377.71 562.22 377.94 561.32 377.94 559.00
  Q 377.93 546.87 377.64 534.76
  Q 377.49 528.97 372.36 527.40
  C 366.54 525.61 354.99 525.93 355.12 534.75
  Q 355.26 544.50 355.12 554.25
  C 355.05 559.21 353.23 564.58 348.07 565.68
  C 341.79 567.02 336.12 562.32 336.24 555.75
  Q 336.39 547.50 336.38 539.25
  C 336.37 534.87 336.51 528.50 333.03 526.84
  Q 326.76 523.84 319.66 526.35
  C 315.56 527.80 314.54 532.60 314.52 536.50
  Q 314.43 551.25 314.50 566.00
  C 314.52 569.55 314.51 574.11 310.95 576.47
  C 305.03 580.40 295.83 577.81 295.81 569.75
  Q 295.76 552.00 295.30 534.26
  C 295.21 530.54 294.44 527.40 291.27 526.26
  C 287.06 524.76 276.14 524.18 273.68 529.73
  Q 272.80 531.72 272.76 535.25
  Q 272.56 553.88 272.95 572.50
  Q 273.03 576.73 271.98 579.23
  C 270.14 583.57 264.05 585.04 259.93 582.90
  Q 254.54 579.99 254.56 574.00
  Q 254.63 555.00 254.68 536.01
  C 254.71 524.65 248.15 524.57 239.23 525.92
  C 231.58 527.07 230.89 532.04 230.77 539.12
  C 230.58 550.50 231.12 562.30 230.16 573.61
  C 229.30 583.69 212.23 582.52 212.33 571.75
  Q 212.51 554.50 212.60 537.25
  C 212.63 532.50 212.11 526.19 207.26 524.78
  C 201.29 523.05 187.90 522.92 187.75 532.25
  Q 187.64 539.59 187.42 546.93
  C 187.06 559.04 168.02 557.66 167.83 546.39
  Q 167.69 537.32 167.49 528.25
  C 167.43 525.60 167.35 522.73 164.81 522.17
  Q 156.91 520.43 149.84 518.63
  Q 146.03 517.19 143.44 514.58
  Q 151.75 512.90 159.46 511.06
  C 165.46 509.62 167.68 507.91 167.71 502.00
  Q 167.78 490.56 167.73 479.12
  C 167.71 475.64 168.28 473.44 171.07 471.56
  C 177.12 467.49 185.88 469.61 187.26 477.50
  Q 188.04 482.01 187.75 494.51
  Q 187.59 501.24 188.20 503.02
  C 190.60 510.10 199.57 510.03 205.48 508.49
  C 211.45 506.92 212.67 502.39 212.73 496.75
  Q 212.84 487.71 212.66 462.49
  C 212.63 458.52 212.52 455.11 215.24 453.02
  Q 218.49 450.52 222.68 451.00
  C 228.34 451.64 230.73 455.37 230.60 460.87
  Q 230.40 470.20 230.72 499.50
  C 230.82 508.35 239.77 509.87 246.61 508.27
  C 254.16 506.51 254.64 501.78 254.71 495.00
  Q 254.83 482.93 254.73 461.24
  Q 254.69 453.67 252.50 447.98
  C 250.75 443.46 252.75 438.29 255.36 434.54
  A 0.95 0.94 -64.6 0 0 254.85 433.09
  Q 222.49 424.00 190.37 413.96
  C 175.36 409.27 162.59 402.93 157.64 386.76
  Q 156.93 384.45 155.85 381.92
  Q 156.45 380.65 156.99 379.01
  Q 157.61 377.09 158.05 376.06
  Q 165.42 358.80 174.95 343.09
  Q 184.50 331.59 197.77 328.27
  Q 203.53 326.82 216.30 327.23
  Q 228.30 327.62 236.25 328.05
  Q 284.99 330.74 333.75 333.10
  Q 335.48 333.19 337.36 330.85
  Q 346.58 319.44 355.79 308.00
  C 359.11 303.87 362.95 299.24 367.41 296.80
  Q 377.24 291.41 388.05 296.49
  C 389.40 297.12 391.16 297.22 392.52 296.72
  Q 406.89 291.46 418.92 299.07
  C 431.60 307.09 438.28 319.02 440.46 333.17
  A 1.19 1.18 88.4 0 0 441.51 334.17
  C 445.08 334.52 448.37 334.60 450.99 331.50
  Q 459.36 321.62 467.90 311.89
  C 473.60 305.39 479.42 299.88 487.56 297.37
  C 519.26 287.60 548.02 310.92 553.03 341.62
  A 1.12 1.12 0.0 0 0 554.28 342.54
  Q 565.20 341.06 575.51 340.71
  Q 578.89 340.60 581.74 337.21
  Q 600.86 314.48 620.05 291.80
  C 622.59 288.79 623.40 287.52 624.27 283.41
  C 629.98 256.59 652.00 241.09 676.22 231.73
  Q 680.60 230.04 693.58 222.57
  C 700.23 218.74 706.44 215.65 713.02 212.42
  C 723.77 206.62 734.96 203.34 745.76 207.65
  A 2.96 2.93 -48.5 0 0 748.31 207.48
  L 751.60 205.64
  A 1.30 1.30 0.0 0 1 753.28 206.00
  Q 754.34 207.42 756.55 207.22
  L 757.30 207.36
  L 753.52 209.36
  Q 753.35 209.45 753.42 209.64
  L 753.52 209.91
  Q 753.53 209.96 753.59 209.94
  C 762.32 207.22 775.61 210.22 782.93 214.09
  C 806.14 226.37 800.77 248.26 790.45 266.87
  A 0.13 0.13 0.0 0 0 790.67 267.01
  Q 799.26 255.63 802.34 241.20
  Q 804.26 232.25 800.07 224.17
  C 795.28 214.92 785.95 208.94 776.14 206.20
  Q 776.11 206.19 776.09 206.21
  Q 775.90 206.42 776.14 206.11
  Q 776.20 206.03 776.29 206.07
  Q 777.61 206.66 778.40 205.67
  Q 778.63 205.37 779.01 205.37
  L 781.21 205.37
  A 0.98 0.97 19.5 0 0 781.96 205.02
  C 782.47 204.41 784.62 204.54 785.67 203.86
  Q 786.07 203.60 786.55 203.61
  C 788.52 203.65 790.39 203.58 792.35 203.77
  Q 793.70 203.91 794.76 203.04
  Q 796.25 203.04 796.07 201.88
  A 1.31 1.31 0.0 0 1 797.04 200.41
  Q 805.06 198.42 812.49 202.72
  C 818.48 206.19 820.97 209.99 821.66 217.09
  C 822.53 225.96 820.22 234.81 816.67 242.90
  Q 813.35 250.48 809.52 257.79
  Q 809.49 257.85 809.55 257.88
  L 809.78 258.01
  Q 810.06 258.17 810.22 257.89
  L 816.52 246.70
  Z
  M 774.03 229.89
  C 778.97 231.63 781.62 234.19 785.20 237.43
  Q 786.37 238.50 785.54 237.15
  C 780.67 229.27 770.26 224.40 761.51 223.53
  C 744.54 221.84 726.66 228.97 712.70 238.15
  Q 712.57 238.24 712.65 238.38
  L 712.66 238.38
  Q 712.74 238.52 712.88 238.45
  C 730.86 228.59 754.47 223.00 774.03 229.89
  Z
  M 396.92 323.15
  C 389.18 317.23 377.63 309.98 369.93 318.68
  Q 353.84 336.83 337.89 354.57
  Q 337.37 355.15 336.59 355.11
  Q 271.87 352.04 207.50 348.81
  Q 200.01 348.43 192.50 348.32
  Q 187.22 348.24 183.83 352.78
  Q 176.45 362.67 172.58 369.53
  C 170.05 374.02 168.63 377.83 174.21 379.61
  Q 226.12 396.18 277.59 413.03
  A 0.65 0.64 29.3 0 1 277.88 414.06
  Q 270.81 422.45 264.12 430.85
  Q 259.52 436.63 258.53 439.48
  C 256.22 446.13 260.08 453.65 268.01 451.26
  Q 271.69 450.15 274.59 447.61
  C 283.55 439.76 291.47 430.43 299.51 421.66
  Q 299.85 421.29 300.33 421.42
  L 379.02 443.38
  A 0.43 0.43 0.0 0 1 379.24 444.06
  Q 374.00 450.95 368.68 457.66
  Q 365.82 461.26 365.31 464.74
  C 364.14 472.77 371.62 476.71 378.26 473.48
  Q 381.47 471.92 384.64 468.89
  Q 393.75 460.17 401.83 450.82
  A 1.22 1.22 0.0 0 1 403.08 450.45
  L 451.16 464.01
  A 0.60 0.60 0.0 0 1 451.46 464.96
  Q 444.13 473.95 436.88 482.62
  C 434.32 485.68 431.73 491.05 433.52 495.00
  C 436.40 501.32 444.31 498.43 448.04 495.01
  Q 452.43 490.99 467.73 475.82
  A 0.36 0.34 31.1 0 1 468.09 475.74
  L 476.23 478.53
  A 0.15 0.15 0.0 0 1 476.29 478.77
  C 459.45 497.75 442.35 516.53 425.15 535.17
  Q 386.06 577.53 347.79 620.64
  C 346.72 621.84 345.80 622.30 344.23 622.14
  Q 295.64 617.39 247.08 612.20
  C 238.78 611.31 234.96 610.39 229.11 615.10
  Q 219.99 622.44 215.89 626.39
  C 210.69 631.40 210.32 635.36 217.60 638.62
  C 251.64 653.84 286.08 668.62 319.52 685.11
  A 1.93 1.92 -78.9 0 1 320.59 686.72
  C 321.21 696.69 327.67 703.18 336.69 706.87
  C 338.62 707.66 340.10 708.83 341.17 710.34
  Q 355.93 731.17 388.68 778.54
  Q 397.64 791.50 403.88 798.85
  Q 406.51 801.95 410.82 802.66
  C 415.87 803.49 422.28 793.38 424.71 789.72
  Q 427.95 784.85 426.50 778.49
  Q 414.57 725.94 401.94 673.41
  A 2.21 2.19 -29.8 0 1 402.50 671.37
  Q 419.14 654.42 436.38 637.14
  C 469.03 604.42 501.37 571.28 534.76 539.33
  A 0.24 0.23 -37.8 0 1 535.12 539.37
  L 538.71 544.93
  A 0.43 0.41 49.8 0 1 538.68 545.43
  Q 531.91 553.14 526.33 560.81
  C 524.10 563.88 520.82 570.62 522.56 573.71
  C 529.57 586.15 547.87 566.05 553.19 560.81
  A 0.41 0.41 0.0 0 1 553.81 560.86
  L 571.09 585.72
  A 0.85 0.84 -42.0 0 1 571.03 586.76
  C 564.89 593.61 558.69 600.53 553.56 608.17
  Q 552.02 610.46 551.41 612.15
  C 549.50 617.45 553.10 622.96 558.62 622.71
  C 562.50 622.54 566.39 619.70 569.36 617.10
  Q 576.97 610.47 583.93 603.50
  Q 584.22 603.21 584.44 603.54
  L 614.49 647.15
  A 1.68 1.68 0.0 0 1 614.36 649.21
  Q 606.95 657.51 600.39 665.87
  C 597.43 669.64 593.74 675.19 595.82 679.83
  C 599.13 687.24 607.80 683.51 612.14 679.89
  Q 620.18 673.19 627.48 665.83
  A 0.59 0.59 0.0 0 1 628.39 665.91
  L 653.55 703.16
  Q 654.31 704.28 653.44 705.32
  C 647.77 712.11 640.86 719.15 636.87 727.32
  C 632.17 736.93 640.97 743.37 649.12 737.32
  Q 657.88 730.81 665.42 723.18
  A 0.97 0.97 0.0 0 1 666.91 723.32
  Q 689.40 757.16 711.39 790.80
  C 715.05 796.39 720.90 802.79 727.47 796.41
  Q 732.11 791.90 736.00 786.69
  Q 738.60 783.21 737.72 779.00
  C 736.78 774.52 735.42 769.03 733.93 764.03
  Q 712.25 691.29 692.45 618.02
  Q 692.10 616.73 692.14 615.35
  Q 692.16 614.82 692.54 614.46
  Q 702.40 605.24 711.78 595.53
  C 715.90 591.27 711.61 582.57 708.56 578.94
  C 702.39 571.58 689.57 559.04 680.92 569.62
  A 0.35 0.35 0.0 0 1 680.31 569.49
  L 673.53 545.18
  A 0.86 0.86 0.0 0 1 673.74 544.34
  Q 686.90 530.58 700.38 517.13
  C 703.06 514.46 705.36 512.14 704.14 508.01
  C 701.21 498.09 686.65 483.77 675.67 484.32
  C 671.80 484.51 670.30 486.85 667.75 489.51
  Q 663.59 493.85 659.76 498.32
  A 0.46 0.46 0.0 0 1 658.97 498.15
  L 639.44 427.56
  Q 639.22 426.79 639.73 426.16
  Q 642.26 423.05 645.12 420.12
  C 673.28 391.21 702.21 362.70 728.88 332.41
  C 744.34 314.86 758.82 294.21 763.62 271.02
  C 765.56 261.62 764.92 248.00 754.52 243.65
  C 741.85 238.35 723.38 242.68 711.18 247.68
  Q 694.18 254.66 681.29 263.28
  Q 660.73 277.04 639.71 298.22
  C 617.70 320.40 596.86 343.66 574.98 365.98
  A 3.07 3.07 0.0 0 1 572.65 366.90
  L 508.55 363.82
  A 0.30 0.30 0.0 0 1 508.34 363.32
  Q 515.53 355.45 522.70 347.55
  C 523.83 346.31 524.23 345.03 524.64 343.45
  Q 524.75 342.99 525.12 342.69
  L 527.60 340.66
  A 1.32 1.28 74.8 0 0 528.06 339.83
  C 529.09 331.88 520.38 323.75 513.98 320.25
  C 508.94 317.49 496.69 313.04 491.29 316.28
  Q 487.96 318.28 483.84 322.86
  Q 468.74 339.64 453.70 356.46
  Q 451.20 359.27 449.29 360.90
  Q 448.85 361.27 448.28 361.24
  L 401.55 358.94
  A 0.31 0.31 0.0 0 1 401.33 358.43
  Q 408.17 350.55 415.68 343.12
  C 416.65 342.17 416.87 341.31 416.87 340.01
  C 416.81 331.01 410.85 320.63 402.01 318.00
  Q 397.85 316.76 397.09 320.69
  C 396.93 321.50 397.32 322.08 397.41 322.87
  Q 397.49 323.59 396.92 323.15
  Z
  M 295.81 465.75
  C 295.83 462.20 297.06 459.86 300.45 458.50
  Q 309.26 454.96 313.67 462.75
  C 314.23 463.73 314.53 465.81 314.51 466.93
  Q 314.31 481.34 314.49 495.75
  C 314.54 499.68 315.15 504.01 318.57 505.43
  C 324.28 507.80 333.96 506.64 335.87 499.49
  Q 336.17 498.38 336.21 491.98
  Q 336.32 477.24 336.22 462.50
  C 336.20 459.36 338.24 458.71 340.32 457.01
  Q 341.62 455.96 340.00 455.55
  Q 316.24 449.52 292.75 443.53
  Q 290.49 442.95 288.84 442.79
  A 2.66 2.65 20.5 0 0 286.42 443.89
  Q 281.60 450.72 274.01 454.20
  A 1.75 1.75 0.0 0 0 272.99 455.76
  Q 272.70 475.11 272.82 494.50
  C 272.85 499.79 273.37 505.17 278.64 506.72
  C 281.21 507.48 285.30 507.60 288.24 507.04
  C 294.76 505.82 295.62 500.83 295.65 495.25
  Q 295.74 480.50 295.81 465.75
  Z
  M 359.76 468.78
  Q 359.30 465.25 360.18 460.56
  A 0.18 0.17 6.3 0 0 360.00 460.35
  Q 356.70 460.43 353.81 458.86
  Q 353.06 458.46 353.38 459.25
  Q 355.14 463.53 354.97 468.18
  C 354.69 476.26 354.85 484.40 354.74 492.50
  C 354.61 502.96 358.43 508.83 369.99 506.49
  C 376.19 505.23 378.07 501.49 378.03 495.50
  Q 377.97 487.50 377.69 479.75
  A 0.91 0.91 0.0 0 0 376.59 478.89
  C 368.93 480.42 360.85 476.99 359.76 468.78
  Z
  M 402.74 498.50
  C 402.77 505.56 406.92 507.72 413.32 505.90
  C 415.31 505.34 415.84 503.87 415.89 501.99
  Q 416.21 489.26 415.99 476.59
  A 0.62 0.61 -85.5 0 0 415.49 475.99
  L 403.83 473.87
  A 0.72 0.72 0.0 0 0 402.98 474.56
  Q 402.70 486.45 402.74 498.50
  Z
  M 406.42 526.12
  C 402.63 527.49 403.03 530.86 402.84 533.76
  Q 402.65 536.82 404.25 534.20
  Q 406.73 530.15 410.56 527.33
  Q 413.38 525.26 409.83 525.27
  Q 408.74 525.27 406.42 526.12
  Z"
/>
<path fill="#292f47" d="
  M 794.76 203.04
  Q 793.70 203.91 792.35 203.77
  C 790.39 203.58 788.52 203.65 786.55 203.61
  Q 786.07 203.60 785.67 203.86
  C 784.62 204.54 782.47 204.41 781.96 205.02
  A 0.98 0.97 19.5 0 1 781.21 205.37
  L 779.01 205.37
  Q 778.63 205.37 778.40 205.67
  Q 777.61 206.66 776.29 206.07
  Q 776.20 206.03 776.14 206.11
  Q 775.90 206.42 776.09 206.21
  Q 776.11 206.19 776.14 206.20
  C 785.95 208.94 795.28 214.92 800.07 224.17
  Q 804.26 232.25 802.34 241.20
  Q 799.26 255.63 790.67 267.01
  A 0.13 0.13 0.0 0 1 790.45 266.87
  C 800.77 248.26 806.14 226.37 782.93 214.09
  C 775.61 210.22 762.32 207.22 753.59 209.94
  Q 753.53 209.96 753.52 209.91
  L 753.42 209.64
  Q 753.35 209.45 753.52 209.36
  L 757.30 207.36
  Q 758.72 206.49 760.74 206.31
  Q 767.49 205.73 774.20 206.07
  Q 774.67 206.09 774.99 205.74
  Q 776.28 204.32 778.20 204.38
  Q 778.70 204.39 779.17 204.21
  Q 779.64 204.03 780.50 203.89
  Q 785.27 203.09 790.07 202.51
  C 791.71 202.31 793.17 202.72 794.76 203.04
  Z"
/>
<path fill="#292f47" d="
  M 785.20 237.43
  C 781.62 234.19 778.97 231.63 774.03 229.89
  C 754.47 223.00 730.86 228.59 712.88 238.45
  Q 712.74 238.52 712.66 238.38
  L 712.65 238.38
  Q 712.57 238.24 712.70 238.15
  C 726.66 228.97 744.54 221.84 761.51 223.53
  C 770.26 224.40 780.67 229.27 785.54 237.15
  Q 786.37 238.50 785.20 237.43
  Z"
/>
<path fill="#292f47" d="
  M 397.41 322.87
  C 397.32 322.08 396.93 321.50 397.09 320.69
  Q 397.85 316.76 402.01 318.00
  C 410.85 320.63 416.81 331.01 416.87 340.01
  C 416.87 341.31 416.65 342.17 415.68 343.12
  Q 408.17 350.55 401.33 358.43
  A 0.31 0.31 0.0 0 0 401.55 358.94
  L 448.28 361.24
  Q 448.85 361.27 449.29 360.90
  Q 451.20 359.27 453.70 356.46
  Q 468.74 339.64 483.84 322.86
  Q 487.96 318.28 491.29 316.28
  C 496.69 313.04 508.94 317.49 513.98 320.25
  C 520.38 323.75 529.09 331.88 528.06 339.83
  A 1.32 1.28 74.8 0 1 527.60 340.66
  L 525.12 342.69
  Q 524.75 342.99 524.64 343.45
  C 524.23 345.03 523.83 346.31 522.70 347.55
  Q 515.53 355.45 508.34 363.32
  A 0.30 0.30 0.0 0 0 508.55 363.82
  L 572.65 366.90
  A 3.07 3.07 0.0 0 0 574.98 365.98
  C 596.86 343.66 617.70 320.40 639.71 298.22
  Q 660.73 277.04 681.29 263.28
  Q 694.18 254.66 711.18 247.68
  C 723.38 242.68 741.85 238.35 754.52 243.65
  C 764.92 248.00 765.56 261.62 763.62 271.02
  C 758.82 294.21 744.34 314.86 728.88 332.41
  C 702.21 362.70 673.28 391.21 645.12 420.12
  Q 642.26 423.05 639.73 426.16
  Q 639.22 426.79 639.44 427.56
  L 658.97 498.15
  A 0.46 0.46 0.0 0 0 659.76 498.32
  Q 663.59 493.85 667.75 489.51
  C 670.30 486.85 671.80 484.51 675.67 484.32
  C 686.65 483.77 701.21 498.09 704.14 508.01
  C 705.36 512.14 703.06 514.46 700.38 517.13
  Q 686.90 530.58 673.74 544.34
  A 0.86 0.86 0.0 0 0 673.53 545.18
  L 680.31 569.49
  A 0.35 0.35 0.0 0 0 680.92 569.62
  C 689.57 559.04 702.39 571.58 708.56 578.94
  C 711.61 582.57 715.90 591.27 711.78 595.53
  Q 702.40 605.24 692.54 614.46
  Q 692.16 614.82 692.14 615.35
  Q 692.10 616.73 692.45 618.02
  Q 712.25 691.29 733.93 764.03
  C 735.42 769.03 736.78 774.52 737.72 779.00
  Q 738.60 783.21 736.00 786.69
  Q 732.11 791.90 727.47 796.41
  C 720.90 802.79 715.05 796.39 711.39 790.80
  Q 689.40 757.16 666.91 723.32
  A 0.97 0.97 0.0 0 0 665.42 723.18
  Q 657.88 730.81 649.12 737.32
  C 640.97 743.37 632.17 736.93 636.87 727.32
  C 640.86 719.15 647.77 712.11 653.44 705.32
  Q 654.31 704.28 653.55 703.16
  L 628.39 665.91
  A 0.59 0.59 0.0 0 0 627.48 665.83
  Q 620.18 673.19 612.14 679.89
  C 607.80 683.51 599.13 687.24 595.82 679.83
  C 593.74 675.19 597.43 669.64 600.39 665.87
  Q 606.95 657.51 614.36 649.21
  A 1.68 1.68 0.0 0 0 614.49 647.15
  L 584.44 603.54
  Q 584.22 603.21 583.93 603.50
  Q 576.97 610.47 569.36 617.10
  C 566.39 619.70 562.50 622.54 558.62 622.71
  C 553.10 622.96 549.50 617.45 551.41 612.15
  Q 552.02 610.46 553.56 608.17
  C 558.69 600.53 564.89 593.61 571.03 586.76
  A 0.85 0.84 -42.0 0 0 571.09 585.72
  L 553.81 560.86
  A 0.41 0.41 0.0 0 0 553.19 560.81
  C 547.87 566.05 529.57 586.15 522.56 573.71
  C 520.82 570.62 524.10 563.88 526.33 560.81
  Q 531.91 553.14 538.68 545.43
  A 0.43 0.41 49.8 0 0 538.71 544.93
  L 535.12 539.37
  A 0.24 0.23 -37.8 0 0 534.76 539.33
  C 501.37 571.28 469.03 604.42 436.38 637.14
  Q 419.14 654.42 402.50 671.37
  A 2.21 2.19 -29.8 0 0 401.94 673.41
  Q 414.57 725.94 426.50 778.49
  Q 427.95 784.85 424.71 789.72
  C 422.28 793.38 415.87 803.49 410.82 802.66
  Q 406.51 801.95 403.88 798.85
  Q 397.64 791.50 388.68 778.54
  Q 355.93 731.17 341.17 710.34
  C 340.10 708.83 338.62 707.66 336.69 706.87
  C 327.67 703.18 321.21 696.69 320.59 686.72
  A 1.93 1.92 -78.9 0 0 319.52 685.11
  C 286.08 668.62 251.64 653.84 217.60 638.62
  C 210.32 635.36 210.69 631.40 215.89 626.39
  Q 219.99 622.44 229.11 615.10
  C 234.96 610.39 238.78 611.31 247.08 612.20
  Q 295.64 617.39 344.23 622.14
  C 345.80 622.30 346.72 621.84 347.79 620.64
  Q 386.06 577.53 425.15 535.17
  C 442.35 516.53 459.45 497.75 476.29 478.77
  A 0.15 0.15 0.0 0 0 476.23 478.53
  L 468.09 475.74
  A 0.36 0.34 31.1 0 0 467.73 475.82
  Q 452.43 490.99 448.04 495.01
  C 444.31 498.43 436.40 501.32 433.52 495.00
  C 431.73 491.05 434.32 485.68 436.88 482.62
  Q 444.13 473.95 451.46 464.96
  A 0.60 0.60 0.0 0 0 451.16 464.01
  L 403.08 450.45
  A 1.22 1.22 0.0 0 0 401.83 450.82
  Q 393.75 460.17 384.64 468.89
  Q 381.47 471.92 378.26 473.48
  C 371.62 476.71 364.14 472.77 365.31 464.74
  Q 365.82 461.26 368.68 457.66
  Q 374.00 450.95 379.24 444.06
  A 0.43 0.43 0.0 0 0 379.02 443.38
  L 300.33 421.42
  Q 299.85 421.29 299.51 421.66
  C 291.47 430.43 283.55 439.76 274.59 447.61
  Q 271.69 450.15 268.01 451.26
  C 260.08 453.65 256.22 446.13 258.53 439.48
  Q 259.52 436.63 264.12 430.85
  Q 270.81 422.45 277.88 414.06
  A 0.65 0.64 29.3 0 0 277.59 413.03
  Q 226.12 396.18 174.21 379.61
  C 168.63 377.83 170.05 374.02 172.58 369.53
  Q 176.45 362.67 183.83 352.78
  Q 187.22 348.24 192.50 348.32
  Q 200.01 348.43 207.50 348.81
  Q 271.87 352.04 336.59 355.11
  Q 337.37 355.15 337.89 354.57
  Q 353.84 336.83 369.93 318.68
  C 377.63 309.98 389.18 317.23 396.92 323.15
  Q 397.49 323.59 397.41 322.87
  Z"
/>
<path fill="#292f47" d="
  M 335.99 266.52
  C 336.65 262.99 334.00 260.38 334.16 256.91
  C 334.33 252.95 337.68 248.47 339.20 244.94
  Q 339.97 243.16 340.47 245.03
  C 341.64 249.33 337.25 254.15 338.57 257.47
  Q 342.44 267.15 335.39 274.65
  Q 331.83 278.45 326.52 277.95
  C 318.86 277.23 322.87 267.68 327.78 266.31
  Q 330.93 265.43 335.35 266.89
  Q 335.88 267.07 335.99 266.52
  Z"
/>
<path fill="#292f47" d="
  M 262.79 267.96
  Q 261.46 267.74 261.48 269.09
  Q 261.68 285.19 261.03 299.75
  C 260.30 316.06 230.81 315.54 236.59 298.28
  C 239.23 290.38 249.15 288.86 255.35 292.85
  Q 256.50 293.59 256.53 292.23
  L 257.23 260.57
  A 0.85 0.85 0.0 0 1 258.24 259.76
  L 291.44 266.06
  Q 293.71 266.49 293.72 268.81
  C 293.78 281.71 294.40 294.77 293.25 307.50
  C 292.37 317.28 280.68 321.80 272.83 316.89
  C 268.68 314.30 267.08 309.16 268.60 304.57
  C 271.31 296.36 282.16 296.32 288.58 299.45
  A 0.54 0.53 -77.0 0 0 289.34 298.97
  L 289.51 273.48
  A 1.33 1.32 -85.2 0 0 288.40 272.16
  L 262.79 267.96
  Z"
/>
<path fill="#ff747a" d="
  M 804.88 295.29
  Q 810.85 303.95 816.75 312.46
  Q 842.74 350.03 857.99 393.18
  L 856.90 393.86
  Q 856.48 394.11 856.10 393.81
  Q 855.61 393.44 854.97 393.83
  Q 853.92 394.45 852.85 395.18
  A 1.23 1.22 33.5 0 1 851.93 395.36
  C 850.37 395.03 849.16 395.27 847.82 396.15
  Q 847.31 396.48 846.76 396.18
  A 0.99 0.97 42.4 0 0 845.77 396.22
  Q 843.25 397.84 840.23 397.90
  A 1.48 1.46 -69.3 0 0 839.16 398.39
  Q 837.97 399.69 836.12 399.90
  Q 835.74 399.94 835.37 399.87
  Q 834.48 399.70 833.92 400.33
  Q 833.58 400.71 833.07 400.66
  Q 830.37 400.43 828.32 402.31
  Q 827.79 402.79 826.98 402.98
  C 825.15 403.40 823.42 404.53 821.87 405.57
  Q 821.51 405.81 821.11 405.64
  Q 820.64 405.45 819.98 405.63
  Q 817.78 406.24 816.88 407.90
  Q 816.63 408.35 816.18 408.58
  Q 813.77 409.81 811.14 410.45
  Q 809.85 410.76 808.95 411.18
  C 807.39 411.92 806.76 412.49 804.92 412.28
  Q 804.39 412.22 804.38 412.76
  L 804.38 413.08
  Q 804.38 413.33 804.20 413.51
  Q 802.95 414.73 802.40 416.36
  Q 802.27 416.77 802.41 417.18
  Q 802.84 418.37 801.64 418.96
  A 1.52 1.50 88.5 0 0 800.91 419.74
  L 799.46 423.29
  Q 799.33 423.59 799.01 423.63
  Q 798.87 423.65 798.76 423.76
  Q 798.29 424.21 798.38 424.50
  Q 798.45 424.72 798.62 424.87
  A 0.71 0.69 -67.8 0 1 798.86 425.46
  Q 798.78 426.41 798.02 426.91
  A 2.83 1.56 -48.4 0 1 796.63 427.40
  Q 796.18 427.40 796.12 427.02
  Q 796.02 426.47 795.47 426.51
  Q 794.99 426.55 794.77 426.87
  Q 794.52 427.25 794.07 427.31
  L 793.30 427.40
  Q 792.76 427.46 792.90 426.93
  L 793.03 426.42
  C 796.80 423.80 799.74 420.67 798.97 416.24
  Q 798.46 413.30 798.32 410.32
  C 798.13 406.31 799.76 401.83 799.12 397.53
  Q 798.66 394.44 797.52 397.35
  Q 795.35 402.94 793.61 410.45
  Q 792.92 409.55 792.95 408.04
  Q 792.96 407.39 792.31 407.35
  L 790.69 407.23
  Q 790.07 407.19 789.97 407.80
  L 789.81 408.73
  Q 789.71 409.30 789.19 409.54
  Q 786.87 410.60 786.00 411.39
  Q 783.47 413.71 781.00 416.09
  Q 780.66 416.42 780.52 416.88
  C 780.14 418.09 779.65 418.65 778.45 419.26
  Q 777.56 419.73 777.61 420.55
  A 1.90 1.89 -1.2 0 1 775.67 422.57
  C 774.09 422.54 773.40 424.38 771.89 424.82
  A 0.37 0.37 0.0 0 0 771.63 425.16
  Q 771.63 425.39 771.63 425.62
  Q 771.64 426.10 771.28 426.42
  Q 770.22 427.38 769.80 428.78
  Q 769.66 429.21 769.22 429.15
  Q 768.26 429.01 767.61 429.38
  Q 765.11 430.81 762.57 430.88
  Q 762.09 430.90 761.69 430.62
  Q 761.38 430.39 761.05 430.29
  Q 760.59 430.15 760.34 430.56
  Q 759.48 432.01 759.57 433.72
  Q 759.58 433.84 759.46 433.82
  L 759.18 433.79
  A 0.25 0.24 -85.3 0 1 758.96 433.52
  Q 759.12 430.99 758.42 428.52
  Q 758.35 428.27 758.12 428.14
  Q 757.67 427.87 757.66 428.40
  L 757.54 437.96
  Q 757.54 429.23 757.45 420.50
  C 757.31 407.09 738.23 407.67 738.18 419.25
  Q 737.99 457.75 737.81 496.25
  Q 737.80 499.53 736.89 501.86
  C 735.04 506.64 725.69 506.76 722.25 505.68
  C 717.69 504.25 716.92 500.17 716.87 495.52
  Q 716.60 466.51 716.68 437.50
  C 716.69 433.96 716.49 429.82 714.83 426.84
  C 709.28 416.90 691.35 419.13 691.19 432.01
  Q 691.00 447.12 690.71 462.25
  Q 690.70 462.82 690.61 463.18
  A 0.83 0.83 0.0 0 1 689.54 463.77
  L 680.09 460.62
  A 2.16 2.14 -81.4 0 1 678.63 458.62
  Q 678.39 445.48 678.51 433.50
  C 678.53 430.65 678.77 429.23 680.69 426.96
  Q 697.16 407.50 713.49 387.94
  C 725.26 373.84 736.38 360.14 747.26 343.99
  Q 748.26 342.51 751.08 341.35
  Q 770.45 333.35 784.12 319.36
  Q 793.04 310.23 804.88 295.29
  Z
  M 768.65 385.75
  A 0.36 0.36 0.0 0 1 768.07 385.93
  Q 765.47 383.73 762.52 382.05
  Q 756.43 378.57 749.68 380.85
  Q 746.61 381.89 746.21 385.01
  C 744.60 397.52 769.00 403.73 771.79 389.52
  Q 773.86 378.98 775.99 368.25
  A 1.05 1.04 12.1 0 1 777.25 367.44
  Q 789.48 370.33 801.98 371.26
  Q 803.59 371.38 804.27 369.92
  L 804.72 368.94
  Q 805.31 367.64 803.93 367.29
  Q 789.98 363.80 775.76 361.82
  A 1.35 1.35 0.0 0 0 774.34 362.61
  Q 773.38 364.79 772.89 367.27
  Q 771.00 376.64 768.65 385.75
  Z"
/>
<path fill="#292f47" d="
  M 768.65 385.75
  Q 771.00 376.64 772.89 367.27
  Q 773.38 364.79 774.34 362.61
  A 1.35 1.35 0.0 0 1 775.76 361.82
  Q 789.98 363.80 803.93 367.29
  Q 805.31 367.64 804.72 368.94
  L 804.27 369.92
  Q 803.59 371.38 801.98 371.26
  Q 789.48 370.33 777.25 367.44
  A 1.05 1.04 12.1 0 0 775.99 368.25
  Q 773.86 378.98 771.79 389.52
  C 769.00 403.73 744.60 397.52 746.21 385.01
  Q 746.61 381.89 749.68 380.85
  Q 756.43 378.57 762.52 382.05
  Q 765.47 383.73 768.07 385.93
  A 0.36 0.36 0.0 0 0 768.65 385.75
  Z"
/>
<path fill="#f46377" d="
  M 155.85 381.92
  Q 156.93 384.45 157.64 386.76
  C 162.59 402.93 175.36 409.27 190.37 413.96
  Q 222.49 424.00 254.85 433.09
  A 0.95 0.94 -64.6 0 1 255.36 434.54
  C 252.75 438.29 250.75 443.46 252.50 447.98
  Q 254.69 453.67 254.73 461.24
  Q 254.83 482.93 254.71 495.00
  C 254.64 501.78 254.16 506.51 246.61 508.27
  C 239.77 509.87 230.82 508.35 230.72 499.50
  Q 230.40 470.20 230.60 460.87
  C 230.73 455.37 228.34 451.64 222.68 451.00
  Q 218.49 450.52 215.24 453.02
  C 212.52 455.11 212.63 458.52 212.66 462.49
  Q 212.84 487.71 212.73 496.75
  C 212.67 502.39 211.45 506.92 205.48 508.49
  C 199.57 510.03 190.60 510.10 188.20 503.02
  Q 187.59 501.24 187.75 494.51
  Q 188.04 482.01 187.26 477.50
  C 185.88 469.61 177.12 467.49 171.07 471.56
  C 168.28 473.44 167.71 475.64 167.73 479.12
  Q 167.78 490.56 167.71 502.00
  C 167.68 507.91 165.46 509.62 159.46 511.06
  Q 151.75 512.90 143.44 514.58
  Q 132.87 507.24 131.52 493.74
  Q 131.13 489.82 131.78 480.63
  Q 133.43 457.54 140.48 428.51
  Q 146.94 401.86 155.85 381.92
  Z"
/>
<path fill="#f46377" d="
  M 857.99 393.18
  Q 858.83 394.96 860.27 399.26
  Q 874.24 440.93 877.94 483.50
  C 878.94 495.03 877.80 506.56 868.37 514.23
  Q 857.22 512.71 847.24 509.74
  Q 842.92 508.45 842.85 503.76
  Q 842.66 491.50 842.50 479.25
  C 842.46 475.99 842.05 472.20 839.03 470.25
  C 832.67 466.11 822.92 468.45 823.01 477.24
  Q 823.12 486.88 822.89 496.50
  C 822.68 505.25 815.98 507.03 808.59 506.63
  C 800.61 506.19 797.94 503.54 797.93 495.25
  Q 797.90 476.87 798.06 458.49
  Q 798.15 448.44 788.26 448.81
  C 780.40 449.10 779.66 454.38 779.72 461.24
  Q 779.97 488.51 779.56 497.99
  C 779.20 506.31 768.18 507.62 762.24 505.60
  C 758.15 504.20 757.37 499.05 757.38 495.00
  Q 757.41 466.48 757.54 437.96
  L 757.66 428.40
  Q 757.67 427.87 758.12 428.14
  Q 758.35 428.27 758.42 428.52
  Q 759.12 430.99 758.96 433.52
  A 0.25 0.24 -85.3 0 0 759.18 433.79
  L 759.46 433.82
  Q 759.58 433.84 759.57 433.72
  Q 759.48 432.01 760.34 430.56
  Q 760.59 430.15 761.05 430.29
  Q 761.38 430.39 761.69 430.62
  Q 762.09 430.90 762.57 430.88
  Q 765.11 430.81 767.61 429.38
  Q 768.26 429.01 769.22 429.15
  Q 769.66 429.21 769.80 428.78
  Q 770.22 427.38 771.28 426.42
  Q 771.64 426.10 771.63 425.62
  Q 771.63 425.39 771.63 425.16
  A 0.37 0.37 0.0 0 1 771.89 424.82
  C 773.40 424.38 774.09 422.54 775.67 422.57
  A 1.90 1.89 -1.2 0 0 777.61 420.55
  Q 777.56 419.73 778.45 419.26
  C 779.65 418.65 780.14 418.09 780.52 416.88
  Q 780.66 416.42 781.00 416.09
  Q 783.47 413.71 786.00 411.39
  Q 786.87 410.60 789.19 409.54
  Q 789.71 409.30 789.81 408.73
  L 789.97 407.80
  Q 790.07 407.19 790.69 407.23
  L 792.31 407.35
  Q 792.96 407.39 792.95 408.04
  Q 792.92 409.55 793.61 410.45
  Q 793.12 414.08 794.73 417.21
  Q 796.02 419.70 793.86 417.91
  C 792.28 416.61 788.10 417.40 786.82 418.07
  Q 783.44 419.85 784.16 423.85
  C 784.85 427.62 790.44 427.60 793.03 426.42
  L 792.90 426.93
  Q 792.76 427.46 793.30 427.40
  L 794.07 427.31
  Q 794.52 427.25 794.77 426.87
  Q 794.99 426.55 795.47 426.51
  Q 796.02 426.47 796.12 427.02
  Q 796.18 427.40 796.63 427.40
  A 2.83 1.56 -48.4 0 0 798.02 426.91
  Q 798.78 426.41 798.86 425.46
  A 0.71 0.69 -67.8 0 0 798.62 424.87
  Q 798.45 424.72 798.38 424.50
  Q 798.29 424.21 798.76 423.76
  Q 798.87 423.65 799.01 423.63
  Q 799.33 423.59 799.46 423.29
  L 800.91 419.74
  A 1.52 1.50 88.5 0 1 801.64 418.96
  Q 802.84 418.37 802.41 417.18
  Q 802.27 416.77 802.40 416.36
  Q 802.95 414.73 804.20 413.51
  Q 804.38 413.33 804.38 413.08
  L 804.38 412.76
  Q 804.39 412.22 804.92 412.28
  C 806.76 412.49 807.39 411.92 808.95 411.18
  Q 809.85 410.76 811.14 410.45
  Q 813.77 409.81 816.18 408.58
  Q 816.63 408.35 816.88 407.90
  Q 817.78 406.24 819.98 405.63
  Q 820.64 405.45 821.11 405.64
  Q 821.51 405.81 821.87 405.57
  C 823.42 404.53 825.15 403.40 826.98 402.98
  Q 827.79 402.79 828.32 402.31
  Q 830.37 400.43 833.07 400.66
  Q 833.58 400.71 833.92 400.33
  Q 834.48 399.70 835.37 399.87
  Q 835.74 399.94 836.12 399.90
  Q 837.97 399.69 839.16 398.39
  A 1.48 1.46 -69.3 0 1 840.23 397.90
  Q 843.25 397.84 845.77 396.22
  A 0.99 0.97 42.4 0 1 846.76 396.18
  Q 847.31 396.48 847.82 396.15
  C 849.16 395.27 850.37 395.03 851.93 395.36
  A 1.23 1.22 33.5 0 0 852.85 395.18
  Q 853.92 394.45 854.97 393.83
  Q 855.61 393.44 856.10 393.81
  Q 856.48 394.11 856.90 393.86
  L 857.99 393.18
  Z"
/>
<path fill="#292f47" d="
  M 793.03 426.42
  C 790.44 427.60 784.85 427.62 784.16 423.85
  Q 783.44 419.85 786.82 418.07
  C 788.10 417.40 792.28 416.61 793.86 417.91
  Q 796.02 419.70 794.73 417.21
  Q 793.12 414.08 793.61 410.45
  Q 795.35 402.94 797.52 397.35
  Q 798.66 394.44 799.12 397.53
  C 799.76 401.83 798.13 406.31 798.32 410.32
  Q 798.46 413.30 798.97 416.24
  C 799.74 420.67 796.80 423.80 793.03 426.42
  Z"
/>
<path fill="#f46377" d="
  M 300.45 458.50
  C 297.06 459.86 295.83 462.20 295.81 465.75
  Q 295.74 480.50 295.65 495.25
  C 295.62 500.83 294.76 505.82 288.24 507.04
  C 285.30 507.60 281.21 507.48 278.64 506.72
  C 273.37 505.17 272.85 499.79 272.82 494.50
  Q 272.70 475.11 272.99 455.76
  A 1.75 1.75 0.0 0 1 274.01 454.20
  Q 281.60 450.72 286.42 443.89
  A 2.66 2.65 20.5 0 1 288.84 442.79
  Q 290.49 442.95 292.75 443.53
  Q 316.24 449.52 340.00 455.55
  Q 341.62 455.96 340.32 457.01
  C 338.24 458.71 336.20 459.36 336.22 462.50
  Q 336.32 477.24 336.21 491.98
  Q 336.17 498.38 335.87 499.49
  C 333.96 506.64 324.28 507.80 318.57 505.43
  C 315.15 504.01 314.54 499.68 314.49 495.75
  Q 314.31 481.34 314.51 466.93
  C 314.53 465.81 314.23 463.73 313.67 462.75
  Q 309.26 454.96 300.45 458.50
  Z"
/>
<path fill="#f46377" d="
  M 359.76 468.78
  C 360.85 476.99 368.93 480.42 376.59 478.89
  A 0.91 0.91 0.0 0 1 377.69 479.75
  Q 377.97 487.50 378.03 495.50
  C 378.07 501.49 376.19 505.23 369.99 506.49
  C 358.43 508.83 354.61 502.96 354.74 492.50
  C 354.85 484.40 354.69 476.26 354.97 468.18
  Q 355.14 463.53 353.38 459.25
  Q 353.06 458.46 353.81 458.86
  Q 356.70 460.43 360.00 460.35
  A 0.18 0.17 6.3 0 1 360.18 460.56
  Q 359.30 465.25 359.76 468.78
  Z"
/>
<path fill="#f46377" d="
  M 413.32 505.90
  C 406.92 507.72 402.77 505.56 402.74 498.50
  Q 402.70 486.45 402.98 474.56
  A 0.72 0.72 0.0 0 1 403.83 473.87
  L 415.49 475.99
  A 0.62 0.61 -85.5 0 1 415.99 476.59
  Q 416.21 489.26 415.89 501.99
  C 415.84 503.87 415.31 505.34 413.32 505.90
  Z"
/>
<path fill="#36c8b4" d="
  M 149.84 518.63
  Q 156.91 520.43 164.81 522.17
  C 167.35 522.73 167.43 525.60 167.49 528.25
  Q 167.69 537.32 167.83 546.39
  C 168.02 557.66 187.06 559.04 187.42 546.93
  Q 187.64 539.59 187.75 532.25
  C 187.90 522.92 201.29 523.05 207.26 524.78
  C 212.11 526.19 212.63 532.50 212.60 537.25
  Q 212.51 554.50 212.33 571.75
  C 212.23 582.52 229.30 583.69 230.16 573.61
  C 231.12 562.30 230.58 550.50 230.77 539.12
  C 230.89 532.04 231.58 527.07 239.23 525.92
  C 248.15 524.57 254.71 524.65 254.68 536.01
  Q 254.63 555.00 254.56 574.00
  Q 254.54 579.99 259.93 582.90
  L 257.70 586.88
  Q 257.48 587.27 257.12 587.53
  Q 256.38 588.04 256.36 588.98
  A 0.43 0.43 0.0 0 1 255.79 589.37
  Q 255.37 589.23 255.19 588.84
  Q 255.14 588.74 255.07 588.82
  Q 254.91 588.96 254.93 589.20
  Q 254.96 589.55 254.63 589.65
  L 253.75 589.92
  Q 253.16 590.10 253.77 590.19
  L 254.18 590.25
  A 0.13 0.13 0.0 0 1 254.18 590.50
  Q 252.12 590.75 250.25 589.87
  Q 250.04 589.77 249.87 589.89
  Q 249.78 589.96 249.89 589.96
  Q 250.41 589.97 250.71 591.10
  C 242.52 589.85 234.63 588.79 227.73 594.50
  Q 224.38 597.27 221.13 600.15
  C 218.42 602.55 215.64 603.27 212.58 604.90
  C 192.88 615.34 190.89 643.30 206.58 658.23
  Q 210.26 661.73 219.31 665.97
  Q 253.40 681.96 288.77 694.86
  Q 298.00 698.22 310.00 701.53
  C 312.23 702.14 313.73 703.06 315.00 705.18
  Q 321.73 716.44 325.52 721.96
  Q 346.29 752.22 366.92 782.57
  Q 367.96 784.11 370.72 786.53
  C 376.88 791.95 382.98 796.89 389.25 802.68
  C 397.29 810.13 405.28 816.34 416.49 816.39
  C 425.65 816.43 433.70 805.61 439.47 799.39
  L 443.84 797.25
  Q 444.35 797.00 444.26 797.56
  Q 444.09 798.67 444.46 799.81
  Q 444.58 800.19 444.85 800.49
  Q 445.92 801.71 446.35 803.27
  Q 446.46 803.64 446.80 803.79
  Q 447.65 804.16 447.92 803.61
  Q 448.11 803.24 448.53 803.24
  L 454.70 803.26
  Q 455.19 803.26 455.32 803.72
  Q 455.82 805.53 457.55 806.36
  Q 457.90 806.52 458.14 806.82
  Q 458.56 807.33 459.36 807.38
  Q 459.78 807.41 459.95 807.79
  L 460.74 809.58
  Q 460.93 810.01 461.38 810.08
  Q 462.46 810.25 463.52 809.79
  Q 463.96 809.60 464.42 809.70
  Q 466.19 810.08 467.56 811.31
  Q 468.14 811.84 467.35 811.83
  Q 467.16 811.83 466.98 811.83
  Q 466.54 811.84 466.58 812.28
  Q 466.62 812.66 466.44 812.93
  Q 466.27 813.16 466.43 813.40
  Q 466.72 813.84 466.52 815.05
  L 444.97 823.49
  Q 443.23 824.17 443.23 826.04
  L 443.21 849.24
  Q 443.21 849.66 442.80 849.55
  Q 435.87 847.72 430.07 851.83
  C 423.34 856.61 423.91 866.93 433.00 868.28
  C 439.08 869.18 447.10 864.46 447.75 857.50
  Q 448.13 853.42 447.98 847.49
  Q 447.73 837.68 447.86 828.10
  A 1.44 1.41 -10.4 0 1 448.78 826.79
  L 482.85 813.86
  A 0.47 0.47 0.0 0 1 483.49 814.30
  L 483.45 834.51
  A 0.68 0.68 0.0 0 1 482.39 835.07
  C 477.84 831.97 466.27 836.90 463.91 841.72
  C 461.54 846.57 463.94 852.34 469.25 853.78
  Q 476.75 855.81 483.34 851.78
  Q 488.76 848.46 488.69 841.26
  Q 488.63 833.84 488.36 826.47
  L 488.44 825.41
  Q 488.45 825.22 488.64 825.24
  Q 488.79 825.24 488.80 825.44
  Q 488.96 829.73 489.41 834.00
  Q 489.44 834.22 489.63 834.32
  Q 489.77 834.40 489.92 834.47
  Q 490.29 834.65 489.96 834.88
  Q 489.73 835.03 489.66 835.19
  Q 489.62 835.27 489.68 835.33
  Q 490.42 836.00 491.36 835.89
  Q 491.82 835.83 491.74 835.37
  Q 491.72 835.22 491.88 835.13
  A 0.40 0.09 -30.5 0 1 492.24 835.01
  Q 492.39 835.10 492.47 835.27
  Q 492.52 835.37 492.49 835.49
  Q 492.39 835.87 492.55 835.68
  L 493.18 834.92
  Q 493.31 834.77 493.49 834.85
  Q 493.66 834.92 493.76 835.02
  Q 493.80 835.08 493.87 835.05
  Q 494.30 834.90 494.02 834.75
  A 0.34 0.34 0.0 0 1 493.89 834.26
  Q 494.47 833.37 495.48 833.45
  Q 495.52 833.46 496.00 833.25
  Q 496.20 833.16 496.13 832.97
  Q 496.01 832.60 496.40 832.57
  Q 498.26 832.41 499.19 830.96
  A 0.71 0.70 24.3 0 1 499.97 830.67
  Q 502.40 831.34 504.06 829.40
  Q 504.40 829.01 504.90 829.12
  Q 505.75 829.31 506.36 828.64
  A 0.93 0.92 29.7 0 1 507.34 828.38
  C 508.55 828.79 510.01 829.36 510.89 827.90
  A 1.59 1.56 -86.2 0 1 511.57 827.29
  C 512.98 826.62 515.62 826.96 516.40 826.25
  Q 516.51 826.14 516.60 826.27
  Q 516.71 826.43 516.82 826.51
  Q 517.15 826.78 516.99 826.39
  Q 516.63 825.53 517.44 824.98
  Q 517.68 824.81 518.39 824.73
  Q 519.05 824.66 519.27 824.16
  Q 519.41 823.83 519.70 823.62
  L 522.61 821.47
  Q 522.65 821.44 522.66 821.49
  Q 522.70 821.63 522.77 821.77
  A 0.14 0.14 0.0 0 0 523.01 821.77
  Q 523.69 820.58 525.13 820.60
  Q 525.62 820.61 526.06 820.39
  C 527.22 819.83 528.17 819.77 529.37 819.12
  C 531.49 817.99 533.27 818.70 535.36 818.40
  Q 535.91 818.32 536.19 817.84
  Q 536.38 817.49 536.74 817.64
  Q 537.12 817.80 537.51 817.69
  L 546.18 815.33
  Q 546.45 815.26 546.68 815.12
  Q 547.03 814.92 547.51 814.91
  Q 552.94 814.81 557.44 812.09
  C 559.18 811.04 560.29 809.06 563.14 808.70
  Q 563.58 808.64 563.88 808.31
  Q 565.44 806.64 567.64 806.10
  Q 568.08 805.99 568.27 805.58
  Q 568.58 804.91 569.22 804.61
  Q 570.13 804.20 570.83 803.47
  Q 571.14 803.15 571.57 803.23
  Q 572.69 803.44 573.03 802.32
  Q 573.07 802.20 573.20 802.19
  Q 573.39 802.19 573.60 802.21
  Q 573.89 802.22 574.00 801.96
  Q 574.45 800.91 575.45 800.73
  Q 576.06 800.62 576.08 800.00
  L 576.12 799.14
  Q 576.13 798.64 576.36 798.20
  Q 577.14 796.68 578.39 795.53
  Q 578.76 795.19 579.24 795.12
  C 581.03 794.85 581.48 793.00 582.55 791.72
  Q 582.80 791.41 583.19 791.36
  Q 584.13 791.22 584.63 790.38
  A 0.98 0.95 -85.9 0 1 585.03 790.02
  L 591.17 787.11
  L 590.99 824.69
  A 0.57 0.57 0.0 0 1 590.21 825.22
  C 580.80 821.44 566.83 823.01 561.55 832.57
  Q 559.35 836.54 560.56 841.01
  C 563.53 851.95 579.26 852.24 587.33 848.69
  Q 596.96 844.45 596.90 833.76
  Q 596.82 817.01 596.80 799.42
  A 1.59 1.58 -11.0 0 1 597.80 797.95
  L 653.43 776.21
  Q 654.15 775.94 654.16 776.75
  L 654.71 825.84
  A 0.56 0.56 0.0 0 1 653.90 826.34
  Q 647.57 823.13 640.81 825.34
  C 627.65 829.64 627.09 849.85 644.48 848.54
  C 652.83 847.92 660.18 841.40 660.23 832.74
  C 660.31 820.87 659.61 802.99 659.78 781.47
  Q 659.84 773.92 657.51 767.42
  Q 661.85 767.33 664.34 764.36
  A 0.41 0.41 0.0 0 0 664.23 763.74
  Q 663.98 763.60 664.30 763.48
  Q 664.52 763.40 664.74 763.49
  Q 665.04 763.63 665.39 763.41
  Q 676.65 777.38 687.65 791.56
  Q 694.75 800.72 705.24 805.51
  Q 707.29 806.45 713.43 810.09
  C 720.34 814.19 729.92 812.73 735.84 808.19
  Q 737.62 806.82 745.65 796.89
  Q 751.68 789.43 757.71 781.96
  C 762.28 776.31 759.36 764.43 757.49 757.75
  C 745.10 713.23 731.93 668.88 719.89 624.28
  Q 719.27 622.00 720.86 620.40
  Q 738.88 602.35 733.09 576.99
  C 731.44 569.76 723.66 561.62 717.84 557.41
  Q 716.99 556.79 716.97 555.25
  Q 716.83 546.12 716.81 537.00
  C 716.78 527.44 723.19 525.16 731.62 526.66
  C 737.12 527.63 737.75 530.47 737.78 535.50
  Q 738.01 573.36 737.99 611.23
  C 737.99 618.87 738.70 624.88 747.25 625.70
  C 753.18 626.28 757.21 622.55 757.25 616.50
  Q 757.53 578.63 757.37 540.75
  C 757.35 534.43 756.83 527.38 764.39 525.09
  C 771.23 523.02 779.89 525.19 779.73 534.01
  Q 779.47 548.37 779.70 576.50
  C 779.73 580.56 781.08 583.83 784.82 585.69
  C 788.22 587.39 792.98 587.32 795.68 584.39
  C 798.47 581.35 798.06 577.08 798.06 573.25
  Q 798.07 552.50 798.14 531.75
  C 798.15 528.65 798.68 525.28 801.99 524.40
  Q 810.59 522.08 818.26 524.36
  C 821.79 525.41 822.89 530.43 822.94 534.00
  Q 823.06 543.41 822.97 552.83
  Q 822.92 558.88 824.29 561.47
  C 827.75 567.97 838.63 568.10 841.94 560.68
  Q 842.82 558.70 842.78 553.25
  Q 842.69 539.52 842.79 525.49
  A 2.45 2.44 -6.5 0 1 844.66 523.14
  L 859.74 519.51
  Q 864.95 520.15 869.09 523.42
  C 879.89 531.93 879.44 544.00 878.43 556.67
  C 873.91 613.07 856.06 668.08 826.33 715.85
  C 805.25 749.75 777.54 782.70 746.13 808.12
  C 739.62 813.38 732.94 818.94 726.35 823.63
  C 653.26 875.71 566.99 903.24 477.01 895.71
  C 426.36 891.46 376.80 876.67 331.77 853.20
  C 300.15 836.72 270.25 817.05 244.25 791.38
  Q 224.57 771.95 209.08 752.67
  C 168.03 701.57 143.84 642.80 134.16 579.01
  Q 132.20 566.06 131.33 551.25
  C 130.58 538.54 132.15 524.71 146.12 519.93
  Q 147.87 519.33 149.84 518.63
  Z
  M 810.61 608.96
  C 808.22 609.80 804.58 610.76 803.68 613.73
  A 1.22 1.18 -49.7 0 0 803.73 614.54
  Q 804.74 616.84 802.51 617.27
  A 1.49 1.47 -76.9 0 0 801.62 617.83
  C 800.69 619.05 800.10 619.77 798.51 620.16
  C 795.55 620.89 789.34 621.63 788.04 624.57
  C 784.95 631.50 796.11 632.07 799.86 631.10
  C 805.22 629.70 810.66 622.44 816.05 623.91
  A 0.53 0.53 0.0 0 0 816.72 623.45
  Q 817.51 614.40 817.05 605.25
  C 816.88 601.81 813.38 598.93 811.85 596.05
  Q 810.89 594.23 810.77 596.29
  Q 810.47 601.61 811.78 606.77
  Q 812.20 608.41 810.61 608.96
  Z
  M 795.89 659.40
  A 0.31 0.31 0.0 0 1 796.32 659.67
  L 797.21 681.21
  Q 797.29 683.15 798.83 681.97
  L 799.27 681.62
  Q 800.51 680.67 800.53 679.10
  L 800.81 654.32
  Q 800.84 652.40 799.05 653.09
  Q 786.46 657.95 774.36 663.28
  C 771.14 664.71 768.15 666.92 767.95 670.00
  Q 767.42 678.37 767.54 687.50
  A 0.59 0.58 -88.2 0 1 766.91 688.10
  Q 760.23 687.64 756.20 693.17
  C 753.02 697.52 755.38 702.78 760.98 702.56
  C 770.18 702.19 771.22 696.40 771.98 689.01
  C 772.55 683.50 772.00 677.58 771.97 672.21
  A 3.28 3.27 77.9 0 1 773.91 669.20
  L 795.89 659.40
  Z
  M 216.55 715.29
  C 210.14 714.82 201.44 718.67 203.50 726.25
  C 205.87 734.93 217.28 732.53 220.27 726.37
  Q 221.57 723.69 221.49 718.43
  Q 221.33 708.59 221.18 698.75
  Q 221.16 697.18 222.34 696.56
  Q 228.88 693.14 235.88 691.56
  A 0.73 0.72 -7.7 0 1 236.77 692.23
  L 237.46 706.17
  Q 237.54 707.85 239.18 707.51
  L 239.48 707.45
  Q 241.63 707.01 241.54 704.81
  Q 241.24 697.32 240.94 691.54
  C 240.81 689.02 239.52 687.70 237.57 686.43
  Q 237.12 686.14 236.69 686.44
  C 236.05 686.88 235.60 687.26 234.87 687.48
  Q 229.29 689.17 223.77 691.07
  C 220.89 692.06 217.31 693.36 217.17 697.00
  Q 216.83 705.87 217.11 714.75
  Q 217.13 715.33 216.55 715.29
  Z
  M 281.29 788.91
  C 283.69 789.86 285.88 791.34 288.24 791.62
  Q 293.09 792.18 297.54 789.80
  C 306.15 785.21 307.03 773.57 303.39 765.80
  Q 302.34 763.56 300.79 762.50
  A 2.47 2.47 0.0 0 1 299.70 760.49
  C 299.51 747.14 293.24 732.20 277.89 731.28
  Q 271.96 730.92 266.95 734.02
  C 255.83 740.88 254.69 753.82 255.43 765.76
  C 255.70 770.16 254.03 774.65 256.29 778.73
  C 261.20 787.60 269.38 796.21 280.33 789.01
  A 1.05 1.04 38.6 0 1 281.29 788.91
  Z"
/>
<path fill="#3bd2b8" d="
  M 250.71 591.10
  Q 250.41 589.97 249.89 589.96
  Q 249.78 589.96 249.87 589.89
  Q 250.04 589.77 250.25 589.87
  Q 252.12 590.75 254.18 590.50
  A 0.13 0.13 0.0 0 0 254.18 590.25
  L 253.77 590.19
  Q 253.16 590.10 253.75 589.92
  L 254.63 589.65
  Q 254.96 589.55 254.93 589.20
  Q 254.91 588.96 255.07 588.82
  Q 255.14 588.74 255.19 588.84
  Q 255.37 589.23 255.79 589.37
  A 0.43 0.43 0.0 0 0 256.36 588.98
  Q 256.38 588.04 257.12 587.53
  Q 257.48 587.27 257.70 586.88
  L 259.93 582.90
  C 264.05 585.04 270.14 583.57 271.98 579.23
  Q 273.03 576.73 272.95 572.50
  Q 272.56 553.88 272.76 535.25
  Q 272.80 531.72 273.68 529.73
  C 276.14 524.18 287.06 524.76 291.27 526.26
  C 294.44 527.40 295.21 530.54 295.30 534.26
  Q 295.76 552.00 295.81 569.75
  C 295.83 577.81 305.03 580.40 310.95 576.47
  C 314.51 574.11 314.52 569.55 314.50 566.00
  Q 314.43 551.25 314.52 536.50
  C 314.54 532.60 315.56 527.80 319.66 526.35
  Q 326.76 523.84 333.03 526.84
  C 336.51 528.50 336.37 534.87 336.38 539.25
  Q 336.39 547.50 336.24 555.75
  C 336.12 562.32 341.79 567.02 348.07 565.68
  C 353.23 564.58 355.05 559.21 355.12 554.25
  Q 355.26 544.50 355.12 534.75
  C 354.99 525.93 366.54 525.61 372.36 527.40
  Q 377.49 528.97 377.64 534.76
  Q 377.93 546.87 377.94 559.00
  C 377.94 561.32 377.71 562.22 376.11 564.03
  Q 361.52 580.48 346.93 596.93
  C 345.26 598.80 343.26 601.34 340.99 601.11
  C 325.75 599.54 310.35 597.51 295.31 596.01
  Q 272.98 593.78 250.71 591.10
  Z"
/>
<path fill="#36c8b4" d="
  M 406.42 526.12
  Q 408.74 525.27 409.83 525.27
  Q 413.38 525.26 410.56 527.33
  Q 406.73 530.15 404.25 534.20
  Q 402.65 536.82 402.84 533.76
  C 403.03 530.86 402.63 527.49 406.42 526.12
  Z"
/>
<path fill="#3bd2b8" d="
  M 665.39 763.41
  Q 665.04 763.63 664.74 763.49
  Q 664.52 763.40 664.30 763.48
  Q 663.98 763.60 664.23 763.74
  A 0.41 0.41 0.0 0 1 664.34 764.36
  Q 661.85 767.33 657.51 767.42
  Q 655.95 766.27 654.31 764.44
  C 651.92 761.80 648.19 763.69 646.03 764.56
  Q 618.33 775.75 591.17 787.11
  L 585.03 790.02
  A 0.98 0.95 -85.9 0 0 584.63 790.38
  Q 584.13 791.22 583.19 791.36
  Q 582.80 791.41 582.55 791.72
  C 581.48 793.00 581.03 794.85 579.24 795.12
  Q 578.76 795.19 578.39 795.53
  Q 577.14 796.68 576.36 798.20
  Q 576.13 798.64 576.12 799.14
  L 576.08 800.00
  Q 576.06 800.62 575.45 800.73
  Q 574.45 800.91 574.00 801.96
  Q 573.89 802.22 573.60 802.21
  Q 573.39 802.19 573.20 802.19
  Q 573.07 802.20 573.03 802.32
  Q 572.69 803.44 571.57 803.23
  Q 571.14 803.15 570.83 803.47
  Q 570.13 804.20 569.22 804.61
  Q 568.58 804.91 568.27 805.58
  Q 568.08 805.99 567.64 806.10
  Q 565.44 806.64 563.88 808.31
  Q 563.58 808.64 563.14 808.70
  C 560.29 809.06 559.18 811.04 557.44 812.09
  Q 552.94 814.81 547.51 814.91
  Q 547.03 814.92 546.68 815.12
  Q 546.45 815.26 546.18 815.33
  L 537.51 817.69
  Q 537.12 817.80 536.74 817.64
  Q 536.38 817.49 536.19 817.84
  Q 535.91 818.32 535.36 818.40
  C 533.27 818.70 531.49 817.99 529.37 819.12
  C 528.17 819.77 527.22 819.83 526.06 820.39
  Q 525.62 820.61 525.13 820.60
  Q 523.69 820.58 523.01 821.77
  A 0.14 0.14 0.0 0 1 522.77 821.77
  Q 522.70 821.63 522.66 821.49
  Q 522.65 821.44 522.61 821.47
  L 519.70 823.62
  Q 519.41 823.83 519.27 824.16
  Q 519.05 824.66 518.39 824.73
  Q 517.68 824.81 517.44 824.98
  Q 516.63 825.53 516.99 826.39
  Q 517.15 826.78 516.82 826.51
  Q 516.71 826.43 516.60 826.27
  Q 516.51 826.14 516.40 826.25
  C 515.62 826.96 512.98 826.62 511.57 827.29
  A 1.59 1.56 -86.2 0 0 510.89 827.90
  C 510.01 829.36 508.55 828.79 507.34 828.38
  A 0.93 0.92 29.7 0 0 506.36 828.64
  Q 505.75 829.31 504.90 829.12
  Q 504.40 829.01 504.06 829.40
  Q 502.40 831.34 499.97 830.67
  A 0.71 0.70 24.3 0 0 499.19 830.96
  Q 498.26 832.41 496.40 832.57
  Q 496.01 832.60 496.13 832.97
  Q 496.20 833.16 496.00 833.25
  Q 495.52 833.46 495.48 833.45
  Q 494.47 833.37 493.89 834.26
  A 0.34 0.34 0.0 0 0 494.02 834.75
  Q 494.30 834.90 493.87 835.05
  Q 493.80 835.08 493.76 835.02
  Q 493.66 834.92 493.49 834.85
  Q 493.31 834.77 493.18 834.92
  L 492.55 835.68
  Q 492.39 835.87 492.49 835.49
  Q 492.52 835.37 492.47 835.27
  Q 492.39 835.10 492.24 835.01
  A 0.40 0.09 -30.5 0 0 491.88 835.13
  Q 491.72 835.22 491.74 835.37
  Q 491.82 835.83 491.36 835.89
  Q 490.42 836.00 489.68 835.33
  Q 489.62 835.27 489.66 835.19
  Q 489.73 835.03 489.96 834.88
  Q 490.29 834.65 489.92 834.47
  Q 489.77 834.40 489.63 834.32
  Q 489.44 834.22 489.41 834.00
  Q 488.96 829.73 488.80 825.44
  Q 488.79 825.24 488.64 825.24
  Q 488.45 825.22 488.44 825.41
  L 488.36 826.47
  L 488.19 808.82
  A 1.22 1.22 0.0 0 0 486.55 807.69
  L 466.52 815.05
  Q 466.72 813.84 466.43 813.40
  Q 466.27 813.16 466.44 812.93
  Q 466.62 812.66 466.58 812.28
  Q 466.54 811.84 466.98 811.83
  Q 467.16 811.83 467.35 811.83
  Q 468.14 811.84 467.56 811.31
  Q 466.19 810.08 464.42 809.70
  Q 463.96 809.60 463.52 809.79
  Q 462.46 810.25 461.38 810.08
  Q 460.93 810.01 460.74 809.58
  L 459.95 807.79
  Q 459.78 807.41 459.36 807.38
  Q 458.56 807.33 458.14 806.82
  Q 457.90 806.52 457.55 806.36
  Q 455.82 805.53 455.32 803.72
  Q 455.19 803.26 454.70 803.26
  L 448.53 803.24
  Q 448.11 803.24 447.92 803.61
  Q 447.65 804.16 446.80 803.79
  Q 446.46 803.64 446.35 803.27
  Q 445.92 801.71 444.85 800.49
  Q 444.58 800.19 444.46 799.81
  Q 444.09 798.67 444.26 797.56
  Q 444.35 797.00 443.84 797.25
  L 439.47 799.39
  C 443.58 795.34 450.44 790.80 450.55 784.52
  Q 450.70 776.23 450.18 767.98
  Q 449.74 760.93 447.81 751.66
  Q 440.35 715.72 433.00 679.75
  Q 432.35 676.56 434.09 674.60
  C 451.96 654.50 469.86 634.38 488.22 614.74
  Q 489.10 613.81 489.55 614.27
  A 2.20 1.11 35.9 0 1 490.23 615.58
  Q 490.15 642.63 490.24 669.00
  C 490.28 681.44 501.14 688.97 512.76 684.75
  C 520.54 681.93 522.22 674.59 522.19 667.18
  Q 522.02 624.82 521.86 581.92
  A 0.77 0.77 0.0 0 1 522.74 581.15
  C 525.31 581.53 529.54 581.17 531.31 583.44
  C 535.98 589.43 541.09 595.14 545.20 601.54
  C 546.07 602.91 546.26 604.16 545.79 605.82
  C 542.33 618.21 546.55 630.23 561.64 626.66
  A 2.58 2.58 0.0 0 1 564.26 627.57
  Q 575.94 642.38 587.13 658.17
  C 588.12 659.57 588.11 662.02 587.80 663.96
  C 586.60 671.27 586.18 682.87 593.54 686.98
  C 595.43 688.03 598.22 688.27 600.44 688.70
  A 2.75 2.72 -12.9 0 1 602.10 689.73
  C 609.54 699.57 617.20 709.15 624.84 718.83
  C 626.04 720.36 627.83 723.04 627.79 724.98
  C 627.72 728.29 627.44 731.97 628.19 734.96
  C 630.58 744.52 638.78 745.43 647.50 743.73
  Q 649.41 743.36 651.19 745.58
  Q 658.33 754.46 665.39 763.41
  Z
  M 474.77 750.44
  C 468.53 749.85 461.89 750.39 458.58 756.26
  Q 455.45 761.81 458.73 765.55
  C 462.59 769.95 469.49 769.63 474.16 766.43
  Q 480.15 762.32 480.21 755.75
  Q 480.32 743.81 480.11 731.64
  A 1.77 1.77 0.0 0 1 481.21 729.96
  L 501.83 721.42
  A 0.42 0.42 0.0 0 1 502.41 721.79
  L 503.16 739.14
  Q 503.22 740.30 504.38 740.27
  L 505.27 740.24
  Q 506.48 740.20 506.48 738.98
  L 506.50 715.71
  A 0.73 0.73 0.0 0 0 505.75 714.98
  Q 504.76 715.01 503.57 715.45
  Q 492.28 719.63 481.10 724.09
  Q 478.69 725.05 475.73 727.30
  A 1.00 0.99 -19.3 0 0 475.35 728.08
  L 475.34 749.92
  Q 475.34 750.50 474.77 750.44
  Z"
/>
<path fill="#292f47" d="
  M 810.61 608.96
  Q 812.20 608.41 811.78 606.77
  Q 810.47 601.61 810.77 596.29
  Q 810.89 594.23 811.85 596.05
  C 813.38 598.93 816.88 601.81 817.05 605.25
  Q 817.51 614.40 816.72 623.45
  A 0.53 0.53 0.0 0 1 816.05 623.91
  C 810.66 622.44 805.22 629.70 799.86 631.10
  C 796.11 632.07 784.95 631.50 788.04 624.57
  C 789.34 621.63 795.55 620.89 798.51 620.16
  C 800.10 619.77 800.69 619.05 801.62 617.83
  A 1.49 1.47 -76.9 0 1 802.51 617.27
  Q 804.74 616.84 803.73 614.54
  A 1.22 1.18 -49.7 0 1 803.68 613.73
  C 804.58 610.76 808.22 609.80 810.61 608.96
  Z"
/>
<path fill="#292f47" d="
  M 795.89 659.40
  L 773.91 669.20
  A 3.28 3.27 77.9 0 0 771.97 672.21
  C 772.00 677.58 772.55 683.50 771.98 689.01
  C 771.22 696.40 770.18 702.19 760.98 702.56
  C 755.38 702.78 753.02 697.52 756.20 693.17
  Q 760.23 687.64 766.91 688.10
  A 0.59 0.58 -88.2 0 0 767.54 687.50
  Q 767.42 678.37 767.95 670.00
  C 768.15 666.92 771.14 664.71 774.36 663.28
  Q 786.46 657.95 799.05 653.09
  Q 800.84 652.40 800.81 654.32
  L 800.53 679.10
  Q 800.51 680.67 799.27 681.62
  L 798.83 681.97
  Q 797.29 683.15 797.21 681.21
  L 796.32 659.67
  A 0.31 0.31 0.0 0 0 795.89 659.40
  Z"
/>
<path fill="#292f47" d="
  M 217.11 714.75
  Q 216.83 705.87 217.17 697.00
  C 217.31 693.36 220.89 692.06 223.77 691.07
  Q 229.29 689.17 234.87 687.48
  C 235.60 687.26 236.05 686.88 236.69 686.44
  Q 237.12 686.14 237.57 686.43
  C 239.52 687.70 240.81 689.02 240.94 691.54
  Q 241.24 697.32 241.54 704.81
  Q 241.63 707.01 239.48 707.45
  L 239.18 707.51
  Q 237.54 707.85 237.46 706.17
  L 236.77 692.23
  A 0.73 0.72 -7.7 0 0 235.88 691.56
  Q 228.88 693.14 222.34 696.56
  Q 221.16 697.18 221.18 698.75
  Q 221.33 708.59 221.49 718.43
  Q 221.57 723.69 220.27 726.37
  C 217.28 732.53 205.87 734.93 203.50 726.25
  C 201.44 718.67 210.14 714.82 216.55 715.29
  Q 217.13 715.33 217.11 714.75
  Z"
/>
<path fill="#292f47" d="
  M 475.34 749.92
  L 475.35 728.08
  A 1.00 0.99 -19.3 0 1 475.73 727.30
  Q 478.69 725.05 481.10 724.09
  Q 492.28 719.63 503.57 715.45
  Q 504.76 715.01 505.75 714.98
  A 0.73 0.73 0.0 0 1 506.50 715.71
  L 506.48 738.98
  Q 506.48 740.20 505.27 740.24
  L 504.38 740.27
  Q 503.22 740.30 503.16 739.14
  L 502.41 721.79
  A 0.42 0.42 0.0 0 0 501.83 721.42
  L 481.21 729.96
  A 1.77 1.77 0.0 0 0 480.11 731.64
  Q 480.32 743.81 480.21 755.75
  Q 480.15 762.32 474.16 766.43
  C 469.49 769.63 462.59 769.95 458.73 765.55
  Q 455.45 761.81 458.58 756.26
  C 461.89 750.39 468.53 749.85 474.77 750.44
  Q 475.34 750.50 475.34 749.92
  Z"
/>
<path fill="#292f47" d="
  M 280.33 789.01
  C 269.38 796.21 261.20 787.60 256.29 778.73
  C 254.03 774.65 255.70 770.16 255.43 765.76
  C 254.69 753.82 255.83 740.88 266.95 734.02
  Q 271.96 730.92 277.89 731.28
  C 293.24 732.20 299.51 747.14 299.70 760.49
  A 2.47 2.47 0.0 0 0 300.79 762.50
  Q 302.34 763.56 303.39 765.80
  C 307.03 773.57 306.15 785.21 297.54 789.80
  Q 293.09 792.18 288.24 791.62
  C 285.88 791.34 283.69 789.86 281.29 788.91
  A 1.05 1.04 38.6 0 0 280.33 789.01
  Z
  M 285.05 759.30
  C 287.93 758.06 292.32 758.39 295.15 758.86
  Q 295.61 758.94 295.53 758.48
  C 293.89 749.02 291.09 740.84 280.95 737.78
  C 270.56 734.65 263.29 741.59 260.82 751.04
  C 259.27 757.01 259.72 763.57 262.14 769.29
  Q 262.24 769.53 262.49 769.45
  L 262.74 769.36
  Q 263.22 769.20 263.10 768.70
  Q 262.20 764.93 261.16 761.15
  C 260.70 759.47 260.98 758.18 262.46 757.14
  C 272.97 749.73 282.47 759.58 286.21 768.73
  Q 286.28 768.90 286.44 768.83
  L 286.45 768.83
  Q 286.61 768.76 286.55 768.60
  C 285.73 766.41 283.95 762.29 284.45 760.03
  Q 284.56 759.51 285.05 759.30
  Z"
/>
<path fill="#36c8b4" d="
  M 284.45 760.03
  C 283.95 762.29 285.73 766.41 286.55 768.60
  Q 286.61 768.76 286.45 768.83
  L 286.44 768.83
  Q 286.28 768.90 286.21 768.73
  C 282.47 759.58 272.97 749.73 262.46 757.14
  C 260.98 758.18 260.70 759.47 261.16 761.15
  Q 262.20 764.93 263.10 768.70
  Q 263.22 769.20 262.74 769.36
  L 262.49 769.45
  Q 262.24 769.53 262.14 769.29
  C 259.72 763.57 259.27 757.01 260.82 751.04
  C 263.29 741.59 270.56 734.65 280.95 737.78
  C 291.09 740.84 293.89 749.02 295.53 758.48
  Q 295.61 758.94 295.15 758.86
  C 292.32 758.39 287.93 758.06 285.05 759.30
  Q 284.56 759.51 284.45 760.03
  Z"
/>
<path fill="#292f47" d="
  M 657.51 767.42
  Q 659.84 773.92 659.78 781.47
  C 659.61 802.99 660.31 820.87 660.23 832.74
  C 660.18 841.40 652.83 847.92 644.48 848.54
  C 627.09 849.85 627.65 829.64 640.81 825.34
  Q 647.57 823.13 653.90 826.34
  A 0.56 0.56 0.0 0 0 654.71 825.84
  L 654.16 776.75
  Q 654.15 775.94 653.43 776.21
  L 597.80 797.95
  A 1.59 1.58 -11.0 0 0 596.80 799.42
  Q 596.82 817.01 596.90 833.76
  Q 596.96 844.45 587.33 848.69
  C 579.26 852.24 563.53 851.95 560.56 841.01
  Q 559.35 836.54 561.55 832.57
  C 566.83 823.01 580.80 821.44 590.21 825.22
  A 0.57 0.57 0.0 0 0 590.99 824.69
  L 591.17 787.11
  Q 618.33 775.75 646.03 764.56
  C 648.19 763.69 651.92 761.80 654.31 764.44
  Q 655.95 766.27 657.51 767.42
  Z"
/>
<path fill="#292f47" d="
  M 488.36 826.47
  Q 488.63 833.84 488.69 841.26
  Q 488.76 848.46 483.34 851.78
  Q 476.75 855.81 469.25 853.78
  C 463.94 852.34 461.54 846.57 463.91 841.72
  C 466.27 836.90 477.84 831.97 482.39 835.07
  A 0.68 0.68 0.0 0 0 483.45 834.51
  L 483.49 814.30
  A 0.47 0.47 0.0 0 0 482.85 813.86
  L 448.78 826.79
  A 1.44 1.41 -10.4 0 0 447.86 828.10
  Q 447.73 837.68 447.98 847.49
  Q 448.13 853.42 447.75 857.50
  C 447.10 864.46 439.08 869.18 433.00 868.28
  C 423.91 866.93 423.34 856.61 430.07 851.83
  Q 435.87 847.72 442.80 849.55
  Q 443.21 849.66 443.21 849.24
  L 443.23 826.04
  Q 443.23 824.17 444.97 823.49
  L 466.52 815.05
  L 486.55 807.69
  A 1.22 1.22 0.0 0 1 488.19 808.82
  L 488.36 826.47
  Z"
/>
</svg>
