<?xml version="1.0" encoding="UTF-8" standalone="no"?>
<!DOCTYPE svg PUBLIC "-//W3C//DTD SVG 1.0//EN" "http://www.w3.org/TR/2001/REC-SVG-20010904/DTD/svg10.dtd">
<svg xmlns="http://www.w3.org/2000/svg" version="1.0" viewBox="0.00 0.00 632.00 418.00">
<path fill="#ffffff" d="
  M 545.12 199.62
  C 539.14 169.88 514.45 144.79 483.60 140.60
  C 460.23 137.43 438.01 142.16 419.70 157.68
  Q 394.06 179.41 368.61 201.10
  A 0.91 0.91 0.0 0 1 367.43 201.10
  L 330.59 169.92
  Q 329.70 169.17 330.59 168.42
  Q 361.77 142.09 392.95 115.77
  Q 402.78 107.48 408.81 103.64
  C 484.10 55.66 581.38 103.53 591.49 191.29
  Q 592.21 197.55 592.22 209.25
  C 592.22 217.22 592.52 225.88 591.86 233.22
  Q 587.57 281.11 552.92 312.87
  C 512.10 350.29 449.93 353.66 404.98 322.29
  Q 399.90 318.74 389.39 309.78
  Q 259.68 199.07 207.78 155.71
  C 191.68 142.25 169.68 137.98 149.00 140.22
  C 121.82 143.16 98.23 161.97 88.52 187.06
  C 73.11 226.87 93.53 269.34 133.15 284.12
  C 141.83 287.36 152.94 288.67 163.67 288.23
  C 180.23 287.54 196.71 282.19 209.19 271.68
  Q 235.37 249.62 261.45 227.43
  Q 261.99 226.97 262.53 227.43
  L 299.47 258.78
  Q 300.26 259.45 299.47 260.12
  Q 269.66 285.23 239.83 310.47
  Q 229.48 319.23 224.14 322.87
  C 181.31 352.04 124.04 350.50 83.03 318.00
  Q 57.71 297.94 45.82 267.10
  Q 38.57 248.29 37.88 230.87
  Q 37.59 223.29 37.81 206.26
  Q 37.97 193.66 39.06 186.32
  C 51.96 99.44 151.49 56.05 223.96 105.55
  Q 229.09 109.05 239.63 117.95
  Q 353.88 214.37 415.40 266.60
  Q 421.66 271.91 424.81 274.16
  Q 440.63 285.46 459.99 287.82
  Q 464.98 288.43 475.26 288.08
  C 520.98 286.50 553.99 243.73 545.12 199.62
  Z"
/>
</svg>
