<?xml version="1.0" encoding="UTF-8" standalone="no"?>
<!DOCTYPE svg PUBLIC "-//W3C//DTD SVG 1.0//EN" "http://www.w3.org/TR/2001/REC-SVG-20010904/DTD/svg10.dtd">
<svg xmlns="http://www.w3.org/2000/svg" version="1.0" viewBox="0.00 0.00 546.00 454.00">
<path fill="#ffffff" d="
  M 324.74 35.24
  L 344.00 35.17
  A 0.88 0.88 0.0 0 0 344.88 34.22
  C 344.08 25.34 344.08 14.97 356.10 14.95
  Q 395.25 14.87 434.38 14.97
  C 448.19 15.01 447.17 24.21 447.06 34.62
  Q 447.05 35.21 447.64 35.21
  Q 471.08 35.16 494.46 35.20
  C 497.67 35.21 500.54 35.59 503.68 35.98
  C 515.28 37.40 524.60 47.19 527.65 57.53
  Q 529.04 62.26 529.04 71.63
  Q 529.05 242.94 529.03 414.25
  C 529.03 432.30 514.45 445.05 496.75 445.05
  Q 275.66 445.07 54.58 445.05
  Q 43.52 445.05 38.57 443.57
  C 25.61 439.69 17.08 427.73 17.07 414.00
  Q 16.95 244.45 16.93 74.90
  Q 16.93 62.22 18.24 57.72
  C 22.67 42.48 35.59 35.19 51.01 35.19
  Q 74.75 35.18 98.44 35.21
  Q 98.95 35.21 98.94 34.70
  C 98.60 24.91 98.02 14.97 110.90 14.94
  Q 149.99 14.85 189.06 15.00
  C 202.46 15.05 201.40 24.50 201.21 34.45
  A 0.72 0.71 0.4 0 0 201.94 35.18
  L 221.29 35.11
  A 0.63 0.63 0.0 0 0 221.92 34.44
  C 221.66 30.22 221.15 23.88 223.17 20.27
  C 226.40 14.50 231.75 14.96 237.50 14.96
  Q 275.25 14.99 313.00 14.92
  Q 320.99 14.90 323.40 21.55
  C 324.68 25.08 324.11 30.45 324.20 34.72
  Q 324.22 35.24 324.74 35.24
  Z
  M 37.62 408.75
  C 37.63 417.46 38.53 424.44 48.75 424.46
  Q 94.00 424.53 139.10 424.51
  Q 139.85 424.51 139.85 423.76
  L 139.86 282.01
  A 0.84 0.83 89.7 0 0 139.02 281.17
  Q 126.36 281.18 113.66 281.15
  Q 106.72 281.13 104.02 279.75
  Q 98.87 277.11 98.87 270.13
  Q 98.87 163.25 98.89 56.48
  Q 98.89 56.00 98.41 56.00
  Q 73.75 56.00 49.00 56.00
  C 39.22 56.00 37.55 62.41 37.54 71.07
  Q 37.46 239.91 37.62 408.75
  Z
  M 201.09 270.75
  C 201.08 277.10 196.30 281.39 189.98 281.35
  Q 175.61 281.26 161.19 281.08
  A 0.71 0.70 -89.6 0 0 160.48 281.79
  L 160.48 423.97
  A 0.52 0.52 0.0 0 0 161.00 424.49
  L 261.76 424.49
  A 1.00 1.00 0.0 0 0 262.76 423.49
  L 262.75 282.00
  A 0.80 0.79 0.0 0 0 261.95 281.21
  Q 247.39 281.19 233.75 281.18
  Q 221.85 281.18 221.84 269.25
  Q 221.78 162.92 221.80 56.82
  A 0.81 0.81 0.0 0 0 220.99 56.01
  L 202.02 55.98
  A 0.71 0.71 0.0 0 0 201.31 56.69
  Q 201.26 163.72 201.09 270.75
  Z
  M 324.00 270.88
  C 323.99 276.96 319.50 281.11 313.45 281.15
  Q 298.75 281.24 284.11 281.12
  A 0.86 0.85 -89.7 0 0 283.25 281.98
  L 283.24 423.62
  A 0.88 0.87 -0.0 0 0 284.12 424.49
  L 384.51 424.51
  Q 385.52 424.51 385.52 423.49
  L 385.51 282.22
  Q 385.51 281.12 384.41 281.13
  Q 372.87 281.25 361.29 281.15
  C 354.56 281.10 349.22 281.67 346.23 276.12
  Q 344.70 273.28 344.71 265.63
  Q 344.76 161.18 344.72 56.97
  A 0.98 0.98 0.0 0 0 343.75 55.99
  L 324.52 55.98
  Q 324.20 55.98 324.20 56.30
  Q 324.14 163.59 324.00 270.88
  Z
  M 446.93 64.88
  Q 447.03 164.38 447.12 263.88
  C 447.12 267.47 447.45 271.83 446.12 274.92
  Q 443.45 281.14 435.75 281.16
  Q 421.26 281.20 406.96 281.13
  Q 406.09 281.12 406.09 281.99
  L 406.11 423.76
  A 0.75 0.75 0.0 0 0 406.86 424.51
  Q 449.56 424.49 492.34 424.49
  Q 499.98 424.49 502.53 423.47
  Q 508.43 421.10 508.43 413.50
  Q 508.41 242.82 508.42 72.14
  C 508.43 63.19 507.43 55.98 497.00 55.99
  Q 472.39 56.02 447.72 55.99
  Q 447.22 55.99 447.19 56.49
  Q 446.93 60.71 446.93 64.88
  Z"
/>
</svg>
