<?xml version="1.0" encoding="UTF-8" standalone="no"?>
<!DOCTYPE svg PUBLIC "-//W3C//DTD SVG 1.0//EN" "http://www.w3.org/TR/2001/REC-SVG-20010904/DTD/svg10.dtd">
<svg xmlns="http://www.w3.org/2000/svg" version="1.0" viewBox="0.00 0.00 596.00 662.00">
<path fill="#ffffff" d="
  M 104.75 489.83
  A 1.08 1.07 -52.0 0 0 103.31 490.01
  Q 83.60 512.87 70.50 539.87
  C 65.81 549.52 62.24 559.29 62.53 570.00
  C 62.90 583.05 72.48 588.70 83.78 591.36
  C 150.41 607.05 196.39 542.41 240.79 506.06
  Q 267.37 484.30 301.11 478.60
  C 324.14 474.70 352.06 478.27 369.79 494.92
  A 1.40 1.39 -44.9 0 1 369.78 496.96
  L 358.04 507.89
  A 1.31 1.31 0.0 0 1 356.27 507.91
  Q 348.35 500.87 337.69 498.28
  C 310.60 491.69 280.83 499.89 258.75 515.56
  Q 251.60 520.63 242.40 529.16
  C 200.78 567.72 156.72 617.72 93.51 611.85
  C 82.36 610.81 70.35 607.86 61.28 602.01
  C 17.46 573.73 66.30 504.80 88.27 478.99
  A 0.77 0.77 0.0 0 0 88.14 477.87
  L 62.36 459.43
  A 1.05 1.05 0.0 0 1 62.10 458.00
  Q 168.51 299.86 274.87 141.62
  C 277.17 138.19 275.50 136.52 275.16 133.00
  C 274.22 123.03 274.41 112.59 276.42 102.78
  C 293.12 21.07 399.30 -3.79 452.49 58.88
  C 500.32 115.24 470.47 198.94 399.99 216.23
  Q 397.38 216.86 395.62 218.85
  Q 265.49 365.21 135.61 511.57
  A 0.37 0.37 0.0 0 1 135.11 511.63
  L 104.75 489.83
  Z
  M 445.93 161.50
  C 470.85 120.20 452.32 68.77 409.40 49.36
  C 376.52 34.49 337.49 43.10 312.96 69.84
  A 0.99 0.98 38.7 0 0 313.13 71.32
  L 444.39 161.84
  A 1.08 1.08 0.0 0 0 445.93 161.50
  Z
  M 346.69 195.84
  C 376.84 206.46 410.00 199.45 433.17 177.69
  A 0.67 0.66 -49.7 0 0 433.09 176.66
  L 302.59 86.66
  Q 301.86 86.15 301.46 86.96
  C 280.52 129.67 301.88 180.06 346.69 195.84
  Z
  M 285.80 166.54
  C 285.23 165.51 284.92 164.09 284.18 163.07
  A 0.82 0.82 0.0 0 0 282.84 163.09
  L 127.95 393.47
  A 1.18 1.17 -54.4 0 0 128.21 395.06
  L 178.26 433.80
  A 1.21 1.20 -50.4 0 0 179.90 433.64
  L 369.36 220.15
  A 0.56 0.56 0.0 0 0 368.98 219.22
  C 332.82 216.60 303.22 197.85 285.80 166.54
  Z
  M 132.02 486.52
  A 0.78 0.78 0.0 0 0 133.06 486.40
  L 166.23 449.06
  A 0.78 0.78 0.0 0 0 166.12 447.93
  L 117.57 410.36
  A 0.78 0.78 0.0 0 0 116.44 410.54
  L 87.48 453.60
  A 0.78 0.78 0.0 0 0 87.67 454.67
  L 132.02 486.52
  Z"
/>
<path fill="#000000" d="
  M 441.00 533.52
  L 440.99 419.13
  Q 440.99 418.58 441.78 418.44
  L 585.55 394.55
  A 0.61 0.61 0.0 0 1 586.26 395.16
  Q 586.23 466.77 586.25 538.50
  Q 586.25 545.54 580.70 552.48
  C 564.17 573.17 521.58 573.43 502.25 557.03
  C 482.38 540.19 494.53 517.79 515.14 510.36
  Q 541.31 500.94 566.66 511.82
  A 0.62 0.61 11.7 0 0 567.52 511.26
  L 567.53 454.83
  A 0.82 0.82 0.0 0 0 566.57 454.02
  L 460.74 471.63
  A 1.25 1.24 85.1 0 0 459.71 472.86
  Q 459.76 511.24 459.76 549.47
  Q 459.76 549.52 460.06 556.05
  Q 460.77 571.80 447.19 580.99
  C 435.57 588.84 423.05 591.03 408.50 590.48
  C 393.39 589.91 372.95 582.77 367.23 567.02
  C 362.90 555.07 369.36 544.08 379.38 537.40
  C 397.09 525.60 421.42 525.46 440.42 533.89
  A 0.41 0.41 0.0 0 0 441.00 533.52
  Z
  M 460.26 434.23
  A 0.72 0.72 0.0 0 0 459.66 434.94
  L 459.69 452.09
  A 0.72 0.72 0.0 0 0 460.53 452.80
  L 566.96 435.13
  A 0.72 0.72 0.0 0 0 567.56 434.42
  L 567.50 417.28
  A 0.72 0.72 0.0 0 0 566.66 416.57
  L 460.26 434.23
  Z
  M 567.20 537.43
  A 28.01 12.44 0.0 0 0 539.19 524.99
  A 28.01 12.44 0.0 0 0 511.18 537.43
  A 28.01 12.44 0.0 0 0 539.19 549.87
  A 28.01 12.44 0.0 0 0 567.20 537.43
  Z
  M 440.92 559.43
  A 27.99 12.47 0.0 0 0 412.93 546.96
  A 27.99 12.47 0.0 0 0 384.94 559.43
  A 27.99 12.47 0.0 0 0 412.93 571.90
  A 27.99 12.47 0.0 0 0 440.92 559.43
  Z"
/>
</svg>
